<svg width="268" height="479" viewBox="0 0 268 479" fill="none" xmlns="http://www.w3.org/2000/svg">
<path d="M204.209 393.277C203.507 394.17 200.912 394.979 200.423 393.132C202.589 389.544 200.245 387.172 202.99 384.539L199.377 382.115C199.463 379.033 199.128 373.685 198.561 367.203C198.278 363.962 197.937 360.438 197.563 356.771C197.187 353.116 196.797 349.319 196.407 345.521C195.592 337.931 194.778 330.34 194.084 323.876C193.445 317.45 192.942 312.143 192.753 309.079L193.327 309.555C193.07 307.222 192.84 304.582 192.624 301.709C192.572 300.991 192.519 300.258 192.464 299.512C192.439 299.14 192.413 298.763 192.386 298.384C192.365 298.007 192.343 297.628 192.321 297.245C192.24 295.715 192.156 294.137 192.069 292.52C191.909 289.286 191.741 285.897 191.569 282.429C191.48 280.694 191.39 278.939 191.299 277.174C191.222 275.424 191.145 273.662 191.068 271.9C190.909 268.38 190.725 264.853 190.502 261.395C190.443 260.53 190.385 259.67 190.327 258.815C190.295 258.387 190.264 257.961 190.233 257.537C190.207 257.115 190.182 256.695 190.156 256.277C190.051 254.604 189.933 252.956 189.802 251.344C189.539 248.12 189.219 245.036 188.827 242.165C188.724 241.447 188.623 240.743 188.524 240.053C188.429 239.364 188.329 238.689 188.223 238.03C188.012 236.712 187.78 235.456 187.525 234.271C191.134 231.438 190.482 227.409 191.585 224.401C190.061 226.047 187.612 225.403 187.809 224.086C188.743 214.766 185.435 223.389 184.485 213.891C184.157 212.518 183.966 210.666 183.888 208.458C183.842 207.36 183.856 206.144 183.884 204.866C183.914 203.585 183.97 202.23 184.051 200.816C184.212 197.989 184.467 194.925 184.793 191.751C184.952 190.17 185.147 188.533 185.354 186.888C185.56 185.242 185.782 183.584 186.016 181.929C186.483 178.619 186.998 175.322 187.536 172.161C187.805 170.585 188.084 169.022 188.364 167.515C188.645 166.008 188.929 164.55 189.212 163.158C190.345 157.591 191.474 153.076 192.403 150.619C187.669 145.054 192.036 138.507 189.175 133.12L190.347 133.699C188.862 127.989 195.827 96.1775 194.429 89.5363L193.638 90.3913C190.815 84.5445 196.386 85.5357 198.427 81.0856C192.625 81.4649 189.669 76.4378 189.354 74.5513L190.61 74.6682C189.82 71.8105 185.224 65.2399 184.75 60.5561L187.893 60.85C186.32 58.8479 186.017 56.0325 186.058 53.3699C186.102 50.7068 186.52 48.1934 186.437 46.7925C188.12 40.4576 194.193 30.7955 190.531 22.1224L199.847 16.8996L199.002 16.0631C199.002 16.0631 171.992 12.9667 142.009 11.1967C112.023 9.4244 79.0683 8.97227 67.1752 14.1842L64.0392 13.904L64.3145 16.1267C62.6071 18.7271 66.1848 20.0728 63.0524 19.7896L63.6514 16.1703C62.582 18.8038 61.0235 16.8897 59.3019 15.8154C58.9324 16.9172 58.4894 17.9839 57.4719 18.8373C58.6514 19.4014 58.8006 18.4944 59.5093 18.1025C60.5341 19.5709 63.3748 21.6633 61.82 23.3599C61.3621 26.0771 56.7116 23.365 56.1813 26.5347C54.4655 34.882 52.4634 43.0884 50.8357 51.325C49.1762 59.5547 47.9087 67.8179 47.72 76.2966C46.3898 76.6332 46.4662 76.1762 45.9109 75.6657C46.9372 80.8162 46.1726 85.333 47.249 90.0274C45.7521 91.2632 43.7874 91.5408 42.4542 91.8717C45.1159 91.2058 43.542 117.613 42.8151 118.008L48.4723 118.561C48.188 123.59 41.8657 119.759 42.9288 124.462C50.8329 126.61 41.5316 132.145 45.685 133.928C45.0494 133.865 44.64 136.13 42.1357 135.881C46.4478 136.759 42.9783 138.263 43.9873 139.744C45.1627 140.315 45.3202 139.417 46.6644 139.084L47.9645 142.437C46.4637 143.669 43.8717 143.878 43.5031 142.455C42.9501 144.595 42.0797 148.778 41.1082 153.994C40.6225 156.602 40.1116 159.469 39.6024 162.468C39.3474 163.961 39.0943 165.512 38.8449 167.077C38.6022 168.642 38.3568 170.224 38.1113 171.808C37.6343 174.975 37.1864 178.15 36.7941 181.204C36.6986 181.967 36.6042 182.723 36.5109 183.47C36.426 184.225 36.342 184.97 36.2595 185.704C36.1016 187.175 35.9608 188.6 35.8405 189.962C35.3596 195.41 35.2035 199.848 35.5888 202.25C38.9663 201.142 36.9405 198.128 42.1995 197.205C44.9348 199.822 40.9325 200.865 43.9107 202.082C40.0211 202.422 39.4842 203.813 38.9216 205.314C38.3606 206.817 37.7802 208.438 33.8187 209.277L38.1461 210.152L35.3992 211.333C37.3526 217.017 37.8716 217.669 37.7015 218.147C37.5347 218.627 36.6531 218.909 35.9344 223.918C36.3611 229.749 42.3112 232.632 39.9418 235.806C40.0074 235.327 42.738 234.107 43.7904 235.628C41.8679 235.717 42.5092 236.729 43.1572 237.798C43.8142 238.867 44.4649 239.993 42.5165 240.324C42.9638 241.8 42.3493 246.544 47.6391 245.016C45.0003 245.779 43.8196 250.005 41.6082 247.449C41.4177 248.878 40.6099 250.256 41.7445 251.3L43.254 249.482C43.575 251.901 42.703 253.757 42.3346 255.41C41.9711 257.06 42.1445 258.491 44.5009 260.073L46.6042 258.32C46.9098 261.186 47.2813 263.579 42.0779 264.675L40.507 261.718C40.5979 266.479 40.9135 269.355 43.6438 273.325L43.7986 271.911C44.4415 272.544 45.0676 273.509 45.6835 274.724C45.9934 275.329 46.292 276.003 46.6052 276.718C46.9185 277.432 47.2308 278.198 47.5429 279.004C48.791 282.228 50.0346 286.104 51.3195 289.962C51.9619 291.891 52.6146 293.816 53.2832 295.654C53.9533 297.49 54.6297 299.246 55.3599 300.809C56.8049 303.947 58.3292 306.409 59.9714 307.535L63.9713 305.408L67.4256 309.297C67.4669 308.835 54.3044 307.508 55.614 307.108C56.0394 315.569 60.1135 359.047 57.6852 366.74C55.5391 369.88 51.3007 367.397 50.662 367.371C52.273 371.129 54.9827 368.936 54.7272 372.156C54.0252 373.045 51.5612 372.024 50.9722 371.539C51.4894 372.941 50.1289 374.269 52.016 374.347C53.4277 372.563 58.4482 373.23 61.6749 372.433L61.3584 376.573L58.1958 376.44C58.1264 377.364 66.8945 378.639 65.3111 382.725C64.7264 386.159 64.7561 389.735 64.8795 393.307C65.0063 396.877 65.2125 400.45 64.9549 403.894C63.059 403.82 61.8947 402.396 60.739 400.968C60.6704 401.891 61.2001 403.288 59.8659 404.161C63.1588 402.442 62.1844 407.007 63.5528 405.684C71.4277 410.584 64.5852 417.222 69.9618 421.573C73.4379 421.705 103.317 423.546 133.358 425.326C163.4 427.107 193.603 428.825 197.729 428.749C197.623 430.126 197.517 431.495 196.85 431.927C198.78 431.537 199.621 428.82 198.465 427.405L194.036 427.239C192.38 423.965 196.637 426.417 196.237 423.2L204.209 393.277Z" fill="#1D4E6B"/>
<path d="M153.832 359.555C165.307 326.254 147.613 289.956 114.312 278.481C81.0114 267.006 44.7135 284.7 33.2387 318.001C21.7639 351.302 39.4576 387.6 72.7586 399.075C106.06 410.55 142.357 392.856 153.832 359.555Z" fill="#FF931C"/>
<path d="M72.4803 380.154C73.014 378.605 72.1911 376.917 70.6422 376.383C69.0933 375.849 67.405 376.672 66.8713 378.221C66.3376 379.77 67.1606 381.458 68.7095 381.992C70.2584 382.526 71.9466 381.703 72.4803 380.154Z" fill="#FA7D35"/>
<path d="M131.69 369.181C132.224 367.633 131.401 365.944 129.852 365.411C128.303 364.877 126.615 365.7 126.081 367.249C125.548 368.798 126.371 370.486 127.919 371.02C129.468 371.553 131.157 370.73 131.69 369.181Z" fill="#FA7D35"/>
<path d="M118.797 380.426C119.932 377.134 118.183 373.545 114.89 372.411C111.598 371.276 108.009 373.026 106.875 376.318C105.74 379.61 107.489 383.199 110.782 384.334C114.074 385.468 117.663 383.719 118.797 380.426Z" fill="#FA7D35"/>
<path d="M95.8827 385.08C97.0172 381.788 95.2678 378.199 91.9754 377.065C88.6829 375.93 85.0942 377.68 83.9597 380.972C82.8252 384.265 84.5746 387.853 87.867 388.988C91.1594 390.122 94.7482 388.373 95.8827 385.08Z" fill="#FA7D35"/>
<path d="M99.5087 285.81L98.776 286.313L99.4626 286.878C100.545 287.767 98.6956 288.673 96.3329 288.41C95.3946 288.305 94.4292 288.387 93.7511 288.629L93.7511 288.629C92.0436 289.237 89.1358 288.736 88.8307 287.78C88.7096 287.4 88.13 287.052 87.2811 286.848L87.281 286.848C85.1432 286.334 85.1957 285.118 87.3698 284.791C88.2332 284.66 88.8405 284.363 88.994 283.995C89.3803 283.07 92.3204 282.82 93.9692 283.573C94.624 283.872 95.5788 284.037 96.5226 284.014C98.8992 283.955 100.664 285.017 99.5087 285.81Z" fill="#003858"/>
<path d="M152.846 71.485C142.036 30.3529 111.099 20.7371 77.2502 30.4798C43.402 40.2225 19.9737 67.4185 29.7164 101.267C39.4591 135.115 74.7965 154.656 108.645 144.914C142.493 135.171 161.799 105.551 152.846 71.485" fill="#FF3D3D"/>
<path d="M140.479 67.8421C136.099 52.6235 125.017 78.4663 105.077 91.4081C91.7928 100.03 64.0839 106.277 68.4644 121.496C72.8448 136.714 102.195 145.741 122.812 131.576C153.5 110.49 144.86 83.0607 140.479 67.8421Z" fill="#C03E3B"/>
<path d="M85.6732 30.7143C84.7707 27.5785 78.5661 34.0319 69.4473 38.1407C63.3724 40.8779 51.4161 43.9632 52.3186 47.099C53.2212 50.2347 64.9325 50.4644 74.4086 46.0409C88.5138 39.4563 86.5758 33.85 85.6732 30.7143Z" fill="#C03E3B"/>
<path d="M67.5493 39.9638L67.5667 39.7132C67.2519 39.5312 67.4276 39.9355 67.1508 39.7057C67.0986 39.3041 66.6701 39.4548 66.6044 39.2182C66.6008 39.2463 66.4611 39.1712 66.4498 39.2796C66.444 39.0737 66.3182 39.1491 66.2418 39.0489C66.2211 38.9794 66.2756 39.0099 66.3099 38.9706L66.1275 38.7833C66.039 38.792 65.9974 38.8847 66.0767 38.9572C65.8123 38.8277 65.0597 38.4058 64.3413 37.9523C63.6166 37.4994 62.9217 37.0252 62.6826 36.8031C62.7838 36.72 62.9155 36.9187 63.0315 36.7571C62.9298 36.5477 62.8238 36.6569 62.7985 36.4951C62.6612 36.7607 62.4859 36.3588 62.3011 36.5943L62.312 36.396L62.2171 36.4541C61.6922 35.8627 62.1064 36.2698 61.5907 35.9482C61.3077 35.7136 61.2352 35.3752 61.0502 35.3484C61.0744 35.3634 61.1672 35.3035 61.1052 35.2069C61.0504 35.3485 60.9378 34.9579 60.8589 35.0844C60.7915 35.0135 60.5504 34.8651 60.6872 34.7155C60.6186 34.7899 60.3967 34.6824 60.4973 34.8611C60.4243 34.8161 60.348 34.7986 60.3104 34.7181L60.416 34.7234C60.1876 34.5276 60.0163 34.5982 59.9123 34.3024L60.0217 34.2811C59.8839 34.1692 59.7688 34.0693 59.6604 34.2381L59.7882 34.4021C59.5558 34.233 59.4232 34.1293 59.2577 33.8859L59.3279 33.9272C59.1288 33.5343 57.9065 32.5447 57.7356 32.1457L57.8708 32.0428L57.7051 31.786C57.7289 31.7979 57.6944 32.3817 57.7231 32.3383C57.6228 32.2728 57.4172 32.1386 57.1595 31.9703C56.9053 31.8144 56.596 31.6165 56.2961 31.454C55.6889 31.1044 55.1145 30.8721 54.9439 30.8675C54.8051 30.9133 54.9161 31.1454 54.9164 31.1744C54.7534 31.0416 54.847 30.9538 54.7061 30.913C54.668 30.9308 54.7149 31.059 54.7362 31.0937C54.674 31.0452 54.6229 31.0976 54.6165 31.0088C54.6894 30.9658 54.6561 30.7294 54.6873 30.5926L54.5071 30.5548L54.5185 30.7011C54.4801 30.693 54.4058 30.2751 54.2273 30.2929C53.934 30.2738 53.6087 30.1341 53.3343 30.1356C53.3521 30.2252 53.4184 30.2872 53.4834 30.348C53.4471 30.3469 53.3874 30.3154 53.363 30.3739C53.4065 30.2275 53.2305 30.2504 53.2727 30.1925C53.207 30.0934 53.1426 30.0364 53.0807 30.0028C53.0211 29.9765 52.964 29.9734 52.9086 29.9737C52.7972 29.9743 52.6941 29.9884 52.5742 29.8575C52.5273 29.6905 52.0947 28.287 51.5819 26.8735C51.0771 25.4604 50.4953 24.0446 50.4372 23.8498C50.3407 23.8625 50.245 23.8758 50.2252 23.9099C50.2214 23.8165 50.4035 23.7605 50.5222 23.8077L50.5996 24.016C50.8543 24.0776 50.6197 23.8885 50.8546 23.8921C50.8226 23.7202 50.5968 23.6927 50.4019 23.6873C50.5662 23.6576 50.7057 23.525 50.8248 23.7097C50.9679 23.6319 50.7518 23.5008 50.9306 23.4202C51.0852 23.4656 51.3075 23.6504 51.4469 23.5562L51.4376 23.5259C51.6169 23.4491 51.7833 23.5246 51.9412 23.6003C52.0989 23.6862 52.2487 23.7726 52.4145 23.7139L52.3675 23.651C52.4801 23.5759 52.751 23.7375 52.9647 23.6881C52.9035 23.7067 52.8622 23.8158 52.9992 23.8679C53.247 23.8236 53.4328 23.9732 53.613 23.8907C53.613 23.8907 53.6612 23.9432 53.7094 23.9955C53.7578 24.0471 53.8041 24.1024 53.8041 24.1024C54.2426 24.2184 55.3377 24.6282 56.3344 25.1804C57.3374 25.7219 58.2638 26.3384 58.6355 26.5776L58.6103 26.5364C59.7641 27.2915 61.9471 28.8068 62.9242 29.7464C63.1242 29.7256 63.3377 29.9176 63.517 30.0002C63.4072 29.9898 63.4118 30.1098 63.4864 30.1567C63.9963 30.5038 63.4937 30.2755 63.9884 30.7011C64.2657 30.9768 64.9689 31.4742 65.66 31.9143C66.3485 32.3481 67.0235 32.7199 67.2785 32.8091C67.4978 33.1893 67.8573 33.2348 68.0844 33.5172L68.0679 33.4514C68.1985 33.5787 68.6557 33.8123 69.105 34.0204C69.5551 34.2287 69.9875 34.3891 70.1328 34.498L70.0913 34.5119C70.3424 34.7705 70.3156 34.4944 70.5126 34.4975C70.4799 34.7441 70.6966 34.9818 70.78 35.0321L70.7768 34.974C70.8951 35.0525 71.1842 35.3845 71.3901 35.476L71.3734 35.3287C71.5458 35.5191 71.8612 35.5539 71.9713 35.5737C72.0966 35.5586 72.2565 35.5241 72.4131 35.4849C72.5679 35.4384 72.7461 35.4617 72.9241 35.542C72.9241 35.542 72.9464 35.4332 72.9687 35.3244C72.9879 35.2165 73.0072 35.1084 73.0072 35.1084L73.0474 35.1499C73.0474 35.1499 73.1587 35.471 73.331 35.9685C73.5032 36.4664 73.7392 37.1411 73.9757 37.85C74.4444 39.2656 74.9182 40.8252 74.6756 41.3889L74.7289 41.5374L74.5692 41.5241C74.4019 41.6041 74.2731 41.433 74.3222 41.5817L74.5729 41.5555C74.397 41.605 74.5472 41.6798 74.6423 41.7617C74.5669 41.7789 74.4944 41.7993 74.4422 41.8468C74.3904 41.7905 74.4545 41.7842 74.4759 41.7508C74.36 41.7033 74.1866 41.5651 74.078 41.622C73.8862 41.6237 74.1193 41.8631 73.8917 41.8639C72.6975 41.8987 71.4991 41.7344 70.3243 41.2331C70.2963 41.2809 70.328 41.2916 70.3616 41.3315C70.185 41.2294 70.0164 41.1541 69.8557 41.0751C69.6976 40.9927 69.5435 40.9116 69.3895 40.8086C69.2983 40.8303 69.2676 40.9039 69.2371 40.9491C69.2528 40.9262 69.1511 40.8579 68.9934 40.7648C68.8391 40.6688 68.6277 40.5486 68.4137 40.4313C67.984 40.1978 67.5682 39.9545 67.5493 39.9638Z" fill="#003858"/>
<path d="M116.775 155.485C67.2871 200.327 12.862 213.547 17.5675 224.489C25.7084 243.418 93.9372 221.388 139.971 172.754C186.005 124.119 211.196 71.2254 198.975 60.3618C190.283 52.6357 150.057 125.329 116.775 155.485Z" fill="#E4A52D"/>
<path d="M108.691 147.743C91.1949 163.431 32.0133 201.615 25.5914 212.018C18.8114 223.002 85.9203 188.083 115.371 162.397C150.657 131.62 202.871 65.755 194.576 58.8148C188.677 53.8791 143.715 116.34 108.691 147.743Z" fill="#FFCC34"/>
<path d="M201.424 50.0562L201.198 49.9882C201.239 49.6323 201.475 49.9334 201.456 49.5939C201.144 49.409 201.541 49.0576 201.379 48.9157C201.404 48.9225 201.429 48.7646 201.53 48.7904C201.359 48.7135 201.501 48.6216 201.463 48.5152C201.416 48.472 201.408 48.5337 201.353 48.5526L201.306 48.3169C201.369 48.2365 201.475 48.2291 201.487 48.3285C201.541 48.0356 201.651 47.1805 201.708 46.344C201.77 45.5018 201.792 44.6789 201.749 44.3747C201.615 44.4417 201.705 44.6354 201.494 44.6891C201.377 44.52 201.537 44.4576 201.413 44.3773C201.726 44.3401 201.49 44.0334 201.806 43.9403L201.629 43.8815L201.738 43.8117C201.554 43.108 201.648 43.6428 201.691 43.0412C201.664 42.6908 201.418 42.5035 201.51 42.3191C201.508 42.3473 201.399 42.4146 201.354 42.322C201.51 42.3192 201.244 42.0758 201.401 42.045C201.382 41.9561 201.404 41.675 201.191 41.753C201.297 41.7137 201.342 41.4651 201.433 41.6231C201.44 41.5379 201.473 41.4606 201.427 41.396L201.366 41.4984C201.339 41.2126 201.506 41.0738 201.316 40.8717L201.23 40.9685C201.219 40.7979 201.205 40.654 201.418 40.6102L201.479 40.7882C201.48 40.5098 201.472 40.3449 201.366 40.1027L201.358 40.1841C201.254 40.024 201.178 39.5639 201.097 39.1035C201.025 38.6502 200.942 38.1925 200.828 38.0444L200.653 38.138L200.539 37.8911C200.534 37.918 201.056 38.086 201.001 38.0989C201.008 37.9796 201.022 37.7352 201.04 37.4287C201.07 37.1311 201.092 36.7619 201.149 36.4169C201.238 35.7095 201.412 35.0618 201.52 34.8887C201.649 34.7633 201.777 34.9493 201.801 34.9591C201.795 34.7531 201.652 34.8148 201.717 34.6667C201.76 34.6356 201.837 34.7214 201.851 34.7526C201.855 34.6794 201.93 34.6387 201.859 34.6056C201.774 34.6672 201.593 34.5585 201.455 34.5471L201.539 34.3518L201.658 34.409C201.676 34.3669 201.364 34.162 201.496 33.9865C201.678 33.6849 201.774 33.3112 201.962 33.0244C202.028 33.0675 202.038 33.1542 202.047 33.2395C202.071 33.201 202.084 33.1293 202.152 33.1195C201.994 33.1253 202.133 32.9465 202.053 32.9751C201.882 32.5836 202.313 32.4701 202.237 32.1565C202.122 32.0678 201.161 31.2672 200.231 30.4063C199.298 29.5512 198.399 28.6381 198.262 28.5326C198.33 28.4477 198.398 28.3636 198.44 28.3543C198.36 28.3262 198.203 28.4778 198.175 28.5991L198.312 28.7261C198.215 28.9764 198.188 28.7101 198.052 28.9258C197.921 28.8493 198.03 28.636 198.14 28.4566C198.017 28.5987 197.819 28.6892 197.91 28.8485C197.758 28.9575 197.771 28.7245 197.595 28.8646C197.539 29.0152 197.57 29.2718 197.403 29.3716L197.382 29.3544C197.03 29.6405 197.246 30.031 196.95 30.2971L196.924 30.2357C196.788 30.316 196.771 30.6106 196.585 30.7898C196.641 30.7397 196.763 30.7348 196.719 30.8753C196.528 31.089 196.543 31.3044 196.36 31.4436L196.422 31.6835C196.332 31.9034 196.207 32.2962 196.074 32.7737C196.018 33.0123 195.958 33.2719 195.895 33.542C195.839 33.8115 195.796 34.0896 195.748 34.3686C195.575 35.4813 195.513 36.5649 195.489 36.9944L195.469 36.9567C195.436 37.6223 195.392 38.6115 195.395 39.5835C195.395 40.5587 195.44 41.5093 195.537 42.1442C195.395 42.3265 195.428 42.5959 195.388 42.7946C195.447 42.6869 195.547 42.7331 195.541 42.8202C195.524 43.4254 195.639 42.8686 195.698 43.4867C195.764 43.8456 195.756 44.6879 195.704 45.4983C195.65 46.3066 195.546 47.0792 195.462 47.3551C195.653 47.6985 195.461 48.0558 195.563 48.3744L195.517 48.3357C195.543 48.5045 195.455 49.0268 195.344 49.5332C195.238 50.0446 195.091 50.5227 195.093 50.7048L195.133 50.669C195.183 50.9959 194.971 50.8863 194.844 51.0847C195.076 51.1308 195.144 51.4271 195.125 51.5212L195.077 51.4996C195.065 51.6444 195.171 52.046 195.105 52.2765L194.988 52.2149C195.043 52.454 194.856 52.7792 194.8 52.9027C194.616 53.174 194.197 53.4667 194.115 53.8993C194.115 53.8993 194.001 53.8982 193.887 53.8971C193.775 53.8938 193.663 53.8906 193.663 53.8906L193.672 53.9435C193.672 53.9435 194.522 54.7149 195.485 55.5326C196.451 56.3432 197.547 57.186 198.186 57.1157L198.284 57.2049L198.368 57.0543C198.537 56.9225 198.465 56.7571 198.566 56.8433L198.393 57.0663C198.541 56.9183 198.517 57.0768 198.532 57.1864C198.592 57.1219 198.653 57.0612 198.726 57.0266C198.707 56.9636 198.664 57.0206 198.622 57.0309C198.647 56.9109 198.635 56.7155 198.75 56.6313C198.867 56.4555 198.936 56.7366 199.074 56.5287C199.828 55.4487 200.442 54.3093 200.756 53.0612C200.814 53.0504 200.804 53.0833 200.817 53.1271C200.865 52.7353 200.973 52.409 200.984 52.0564C201.059 51.9787 201.142 51.9745 201.2 51.961C201.143 51.9741 201.218 51.4968 201.278 51.0221C201.353 50.5426 201.404 50.0699 201.424 50.0562Z" fill="#003858"/>
<path d="M149.463 179.677C113.292 224.919 65.8047 241.523 72.4914 251.187C84.0596 267.906 142.426 242.08 174.593 193.637C206.76 145.193 218.751 94.5466 205.133 85.57C195.448 79.186 173.788 149.251 149.463 179.677Z" fill="#E4A52D"/>
<path d="M140.336 173.228C127.513 189.071 80.9599 228.993 77.2453 239.075C73.3235 249.719 127.902 212.147 149.641 186.14C175.686 154.98 209.887 90.2042 200.736 84.5095C194.229 80.4596 166.005 141.514 140.336 173.228Z" fill="#FFCC34"/>
<path d="M212.499 78.3759L212.344 78.2039C212.55 77.9396 212.602 78.3038 212.745 78.0214C212.574 77.7117 213.074 77.6373 213.008 77.44C213.027 77.4586 213.121 77.3453 213.192 77.4181C213.084 77.2682 213.248 77.2687 213.267 77.1643C213.249 77.1058 213.213 77.1509 213.158 77.1374L213.232 76.9256C213.323 76.8943 213.415 76.9428 213.377 77.0285C213.564 76.8232 214.064 76.2008 214.513 75.5705C214.969 74.9377 215.384 74.3026 215.494 74.0417C215.35 74.0253 215.331 74.2237 215.129 74.1573C215.113 73.9642 215.276 73.9972 215.211 73.8706C215.492 74.0023 215.441 73.64 215.751 73.7299L215.631 73.5926L215.755 73.5938C215.94 72.9471 215.761 73.4147 216.086 72.9649C216.232 72.6766 216.116 72.4035 216.281 72.3056C216.266 72.3266 216.143 72.3232 216.15 72.2277C216.281 72.3056 216.175 71.9782 216.322 72.0351C216.349 71.9556 216.502 71.7468 216.286 71.698C216.394 71.722 216.55 71.5505 216.551 71.7213C216.597 71.6581 216.662 71.6131 216.654 71.5394L216.554 71.5881C216.669 71.3508 216.874 71.3284 216.812 71.0724L216.694 71.1037C216.766 70.965 216.824 70.8444 217.022 70.9192L216.988 71.091C217.121 70.871 217.193 70.7403 217.22 70.4956L217.175 70.5551C217.152 70.189 217.796 68.9603 217.742 68.6019L217.554 68.5858L217.573 68.3315C217.557 68.3501 217.913 68.7533 217.861 68.7346C217.922 68.6449 218.048 68.4613 218.206 68.2311C218.368 68.0113 218.56 67.738 218.762 67.4941C219.161 66.9854 219.592 66.5746 219.756 66.4987C219.916 66.4724 219.936 66.6858 219.952 66.7067C220.037 66.5423 219.898 66.5192 220.012 66.4301C220.059 66.4265 220.085 66.5383 220.083 66.5723C220.117 66.511 220.195 66.5268 220.153 66.4605C220.058 66.4608 219.96 66.2773 219.854 66.1926L220.009 66.0889L220.078 66.1985C220.111 66.1764 219.953 65.8456 220.136 65.7823C220.412 65.6438 220.651 65.4054 220.919 65.2897C220.952 65.3614 220.921 65.434 220.891 65.5052C220.926 65.489 220.967 65.4409 221.023 65.4724C220.9 65.3861 221.084 65.3277 221.011 65.3041C221.02 65.2052 221.051 65.137 221.093 65.0866C221.137 65.0425 221.191 65.0159 221.245 64.9925C221.354 64.9456 221.462 64.9118 221.506 64.767C221.46 64.6275 221.106 63.4386 220.826 62.2084C220.537 60.9819 220.323 59.7207 220.272 59.5565C220.373 59.5245 220.473 59.4933 220.512 59.5092C220.464 59.4408 220.255 59.4782 220.166 59.5626L220.205 59.7445C219.991 59.8971 220.115 59.6619 219.889 59.7644C219.825 59.6277 220.03 59.5119 220.216 59.4251C220.04 59.4738 219.831 59.4382 219.817 59.6212C219.635 59.6263 219.773 59.4404 219.554 59.4589C219.429 59.5572 219.314 59.7841 219.126 59.776L219.119 59.7503C218.902 59.7717 218.781 59.8966 218.669 60.018C218.563 60.1466 218.465 60.2721 218.271 60.3007L218.282 60.2356C218.131 60.2298 217.956 60.4608 217.721 60.5164C217.791 60.5037 217.891 60.5643 217.787 60.6598C217.521 60.7336 217.422 60.9198 217.201 60.9374C217.201 60.9374 217.183 60.9955 217.165 61.0535C217.146 61.111 217.132 61.1703 217.132 61.1703C216.769 61.44 215.928 62.1994 215.262 63.019C214.584 63.8336 214.022 64.6692 213.792 64.9986L213.794 64.9584C213.087 65.9901 211.797 68.004 211.364 69.0925C211.158 69.1627 211.056 69.3911 210.927 69.5266C211.028 69.4724 211.09 69.5602 211.043 69.6255C210.738 70.0912 211.102 69.7137 210.855 70.229C210.737 70.5444 210.326 71.1997 209.896 71.809C209.465 72.4125 209.013 72.966 208.814 73.1384C208.81 73.5039 208.485 73.6897 208.42 73.9884L208.399 73.9343C208.342 74.081 208.026 74.4428 207.703 74.783C207.38 75.1236 207.047 75.4226 206.966 75.5623L207.014 75.5546C206.912 75.8467 206.786 75.6377 206.596 75.7236C206.764 75.8862 206.684 76.1486 206.63 76.2201L206.601 76.1773C206.529 76.2838 206.431 76.6445 206.281 76.7977L206.216 76.6851C206.153 76.8948 205.865 77.0539 205.769 77.115C205.639 77.1575 205.464 77.2008 205.289 77.2394C205.113 77.272 204.952 77.3645 204.823 77.4978C204.823 77.4978 204.742 77.4295 204.66 77.361C204.581 77.2919 204.503 77.2227 204.503 77.2227L204.487 77.2695C204.487 77.2695 204.556 77.5468 204.662 77.9763C204.77 78.406 204.912 78.9896 205.073 79.5977C205.398 80.8107 205.797 82.1288 206.345 82.4292L206.375 82.5582L206.523 82.4807C206.73 82.4667 206.761 82.2894 206.795 82.4168L206.537 82.5047C206.735 82.4653 206.63 82.5827 206.583 82.6818C206.666 82.6621 206.748 82.6459 206.825 82.6577C206.844 82.5953 206.778 82.618 206.739 82.6033C206.826 82.5199 206.918 82.3472 207.055 82.3417C207.243 82.2613 207.148 82.5319 207.37 82.4356C208.552 81.9523 209.629 81.3247 210.497 80.4657C210.55 80.4879 210.525 80.5091 210.515 80.552C210.63 80.4037 210.753 80.2781 210.866 80.153C210.974 80.0269 211.08 79.9031 211.173 79.7639C211.274 79.7405 211.344 79.7802 211.399 79.7996C211.371 79.7899 211.432 79.6977 211.534 79.564C211.632 79.4295 211.771 79.2536 211.915 79.0784C212.205 78.7283 212.475 78.3772 212.499 78.3759Z" fill="#003858"/>
<path d="M217.517 434.911C209.46 464.978 180.892 470.139 153.727 462.86C126.562 455.581 109.245 434.03 117.301 403.964C121.066 389.913 149.129 368.334 154.23 361.653C167.423 344.373 179.979 333.748 194.449 337.625C221.614 344.904 225.573 404.845 217.517 434.911Z" fill="#78CD68"/>
<path d="M210.678 400.227C208.277 385.347 200.021 404.404 186.598 409.011C177.657 412.081 171.125 410.233 159.278 423.958C138.139 448.446 165.375 469.052 188.827 457.934C222.943 441.76 213.566 418.127 210.678 400.227Z" fill="#70B748"/>
<path d="M195.205 333.484L195.039 333.392C195.057 333.118 195.239 333.395 195.21 333.126C194.978 332.928 195.254 332.719 195.132 332.58C195.151 332.59 195.162 332.47 195.236 332.508C195.108 332.42 195.209 332.371 195.177 332.281C195.142 332.24 195.138 332.287 195.099 332.292L195.057 332.1C195.1 332.048 195.177 332.06 195.189 332.139C195.219 331.919 195.269 331.27 195.285 330.629C195.304 329.985 195.297 329.351 195.257 329.109C195.162 329.139 195.232 329.304 195.081 329.311C194.991 329.161 195.105 329.138 195.013 329.056C195.239 329.078 195.059 328.802 195.286 328.782L195.155 328.707L195.232 328.671C195.079 328.097 195.162 328.526 195.176 328.068C195.147 327.792 194.963 327.608 195.025 327.48C195.024 327.501 194.947 327.536 194.912 327.457C195.025 327.48 194.825 327.249 194.938 327.251C194.922 327.179 194.929 326.966 194.777 326.991C194.853 326.978 194.879 326.793 194.949 326.93C194.952 326.866 194.973 326.81 194.938 326.753L194.896 326.822C194.869 326.598 194.986 326.518 194.842 326.331L194.783 326.392C194.77 326.259 194.755 326.145 194.908 326.146L194.958 326.294C194.949 326.077 194.939 325.951 194.855 325.746L194.851 325.808C194.687 325.521 194.576 324.342 194.395 324.07L194.273 324.114L194.181 323.904C194.178 323.924 194.562 324.141 194.523 324.141C194.523 324.051 194.525 323.866 194.527 323.634C194.536 323.409 194.541 323.132 194.565 322.876C194.599 322.348 194.695 321.89 194.764 321.78C194.851 321.711 194.951 321.876 194.969 321.888C194.954 321.731 194.859 321.754 194.893 321.648C194.92 321.631 194.981 321.713 194.994 321.741C194.99 321.682 195.045 321.671 194.991 321.63C194.933 321.659 194.798 321.541 194.698 321.505L194.75 321.375L194.838 321.442C194.849 321.415 194.616 321.197 194.702 321.091C194.814 320.897 194.862 320.634 194.979 320.461C195.028 320.509 195.039 320.577 195.051 320.643C195.065 320.619 195.071 320.568 195.118 320.577C195.007 320.544 195.095 320.443 195.041 320.445C195.006 320.363 194.997 320.299 195.002 320.246C195.01 320.198 195.033 320.16 195.056 320.125C195.103 320.055 195.156 319.996 195.124 319.866C195.038 319.768 194.332 318.92 193.654 318.016C192.972 317.118 192.321 316.17 192.223 316.053C192.271 315.998 192.32 315.942 192.35 315.944C192.293 315.903 192.18 315.996 192.16 316.09L192.259 316.224C192.191 316.411 192.17 316.185 192.073 316.335C191.978 316.244 192.056 316.09 192.135 315.965C192.047 316.056 191.904 316.09 191.971 316.241C191.861 316.3 191.869 316.11 191.743 316.19C191.706 316.306 191.729 316.523 191.611 316.572L191.596 316.554C191.472 316.636 191.449 316.772 191.431 316.903C191.418 317.038 191.41 317.168 191.303 317.249L191.283 317.194C191.188 317.234 191.176 317.472 191.054 317.587C191.092 317.556 191.178 317.575 191.154 317.682C191.021 317.821 191.037 318 190.909 318.08C190.909 318.08 190.922 318.132 190.935 318.184C190.947 318.236 190.963 318.288 190.963 318.288C190.851 318.613 190.649 319.474 190.578 320.331C190.498 321.188 190.497 322.027 190.492 322.36L190.477 322.327C190.468 323.367 190.506 325.369 190.689 326.372C190.592 326.49 190.623 326.704 190.6 326.851C190.64 326.778 190.713 326.83 190.712 326.896C190.716 327.361 190.784 326.949 190.844 327.437C190.902 327.725 190.92 328.374 190.907 328.992C190.892 329.605 190.842 330.185 190.791 330.383C190.939 330.677 190.817 330.923 190.9 331.183L190.865 331.145C190.89 331.28 190.845 331.665 190.788 332.035C190.73 332.405 190.649 332.744 190.657 332.881L190.683 332.86C190.741 333.125 190.577 332.995 190.496 333.121C190.666 333.201 190.725 333.436 190.722 333.509L190.686 333.483C190.686 333.59 190.774 333.909 190.745 334.077L190.659 334.006C190.707 334.193 190.596 334.407 190.562 334.485C190.5 334.558 190.41 334.645 190.319 334.728C190.225 334.807 190.165 334.93 190.14 335.075C190.14 335.075 190.062 335.045 189.984 335.014C189.907 334.982 189.831 334.95 189.831 334.95L189.84 334.993C189.84 334.993 189.996 335.195 190.239 335.507C190.481 335.82 190.809 336.246 191.158 336.686C191.856 337.562 192.643 338.501 193.102 338.578L193.174 338.673L193.233 338.566C193.354 338.493 193.3 338.341 193.373 338.433L193.251 338.581C193.356 338.49 193.34 338.616 193.352 338.71C193.395 338.669 193.438 338.632 193.49 338.618C193.477 338.562 193.445 338.6 193.415 338.6C193.434 338.507 193.42 338.341 193.502 338.295C193.584 338.175 193.637 338.42 193.733 338.276C194.259 337.535 194.66 336.709 194.838 335.76C194.88 335.762 194.874 335.786 194.885 335.824C194.895 335.67 194.918 335.533 194.936 335.399C194.95 335.265 194.964 335.134 194.964 334.994C195.016 334.946 195.076 334.956 195.117 334.956C195.096 334.956 195.096 334.864 195.103 334.726C195.107 334.589 195.121 334.406 195.136 334.222C195.17 333.855 195.191 333.492 195.205 333.484Z" fill="#003858"/>
</svg>
