<svg width="246" height="422" viewBox="0 0 246 422" fill="none" xmlns="http://www.w3.org/2000/svg">
<path d="M212.39 379.736C211.688 380.597 209.094 381.378 208.604 379.596C210.77 376.135 208.426 373.847 211.171 371.307L207.558 368.969C207.644 365.995 207.309 360.837 206.742 354.584C206.459 351.458 206.118 348.058 205.744 344.522C205.368 340.996 204.978 337.333 204.588 333.669C203.774 326.348 202.959 319.025 202.266 312.79C201.626 306.591 201.123 301.472 200.934 298.516L201.509 298.975C201.251 296.725 201.021 294.178 200.805 291.407C200.753 290.715 200.7 290.008 200.646 289.288C200.62 288.929 200.594 288.566 200.568 288.2C200.546 287.836 200.524 287.47 200.502 287.101C200.421 285.625 200.337 284.103 200.251 282.544C200.09 279.424 199.922 276.155 199.75 272.809C199.661 271.136 199.571 269.443 199.48 267.74C199.404 266.052 199.326 264.353 199.249 262.653C199.09 259.257 198.906 255.855 198.683 252.519C198.624 251.685 198.566 250.855 198.508 250.03C198.477 249.618 198.446 249.207 198.414 248.797C198.389 248.391 198.363 247.986 198.337 247.582C198.232 245.968 198.115 244.379 197.983 242.824C197.72 239.714 197.4 236.739 197.008 233.97C196.905 233.277 196.804 232.598 196.705 231.933C196.61 231.268 196.51 230.617 196.404 229.981C196.194 228.709 195.961 227.498 195.706 226.355C199.316 223.622 198.664 219.736 199.766 216.834C198.243 218.422 195.793 217.8 195.99 216.53C196.925 207.54 193.616 215.858 192.666 206.696C192.339 205.371 192.147 203.585 192.069 201.455C192.024 200.396 192.037 199.223 192.065 197.99C192.095 196.755 192.152 195.448 192.232 194.084C192.393 191.356 192.648 188.401 192.975 185.339C193.133 183.814 193.328 182.235 193.535 180.648C193.742 179.061 193.963 177.461 194.197 175.865C194.664 172.672 195.179 169.491 195.718 166.442C195.986 164.922 196.265 163.415 196.546 161.961C196.826 160.506 197.11 159.1 197.393 157.758C198.526 152.388 199.655 148.033 200.584 145.662C195.85 140.295 200.217 133.979 197.356 128.782L198.529 129.341C197.043 123.833 204.008 93.1467 202.61 86.7404L201.819 87.5651C198.997 81.9252 204.567 82.8813 206.609 78.5887C200.806 78.9545 197.851 74.1053 197.535 72.2855L198.791 72.3983C198.002 69.6416 193.406 63.3035 192.932 58.7855L196.075 59.0689C194.501 57.1376 194.198 54.4219 194.239 51.8534C194.283 49.2846 194.702 46.8601 194.618 45.5088C196.301 39.3979 202.374 30.0776 198.712 21.7114L208.028 16.6733L207.183 15.8664C207.183 15.8664 180.174 12.8796 150.19 11.1721C120.205 9.46257 87.2496 9.02643 75.3565 14.0539L72.2204 13.7837L72.4958 15.9277C70.7884 18.4362 74.3661 19.7343 71.2337 19.4611L71.8327 15.9699C70.7633 18.5102 69.2047 16.6638 67.4831 15.6275C67.1137 16.6903 66.6707 17.7192 65.6532 18.5424C66.8327 19.0867 66.9818 18.2117 67.6906 17.8336C68.7154 19.2501 71.5561 21.2685 70.0013 22.9051C69.5434 25.5262 64.8929 22.91 64.3626 25.9676C62.6468 34.0196 60.6446 41.9357 59.017 49.8808C57.3575 57.8195 56.09 65.7903 55.9013 73.969C54.5711 74.2938 54.6475 73.853 54.0922 73.3605C55.1185 78.3288 54.3539 82.6858 55.4303 87.2142C53.9333 88.4062 51.9687 88.6739 50.6355 88.9932C53.2972 88.3509 51.7233 113.824 50.9964 114.205L56.6535 114.738C56.3693 119.59 50.047 115.894 51.11 120.431C59.0142 122.502 49.7129 127.842 53.8663 129.561C53.2307 129.501 52.8213 131.685 50.317 131.445C54.6291 132.293 51.1596 133.743 52.1686 135.172C53.344 135.723 53.5015 134.857 54.8457 134.535L56.1458 137.77C54.645 138.958 52.053 139.16 51.6843 137.787C51.1314 139.852 50.261 143.886 49.2895 148.918C48.8038 151.434 48.2928 154.199 47.7836 157.092C47.5287 158.532 47.2756 160.028 47.0261 161.538C46.7835 163.047 46.5381 164.574 46.2926 166.101C45.8156 169.157 45.3676 172.219 44.9754 175.165C44.8799 175.902 44.7854 176.631 44.6921 177.351C44.6072 178.079 44.5233 178.798 44.4408 179.506C44.2829 180.925 44.1421 182.3 44.0217 183.613C43.5409 188.869 43.3848 193.15 43.7701 195.466C47.1476 194.398 45.1218 191.49 50.3807 190.6C53.1161 193.125 49.1138 194.131 52.092 195.305C48.2023 195.633 47.6655 196.975 47.1029 198.422C46.5418 199.872 45.9615 201.436 42 202.245L46.3273 203.089L43.5804 204.228C45.5339 209.711 46.0529 210.34 45.8828 210.801C45.716 211.264 44.8343 211.536 44.1157 216.368C44.5424 221.993 50.4924 224.774 48.123 227.836C48.1887 227.374 50.9193 226.197 51.9717 227.664C50.0492 227.749 50.6905 228.726 51.3384 229.757C51.9954 230.789 52.6461 231.875 50.6978 232.194C51.1451 233.618 50.5306 238.194 55.8204 236.72C53.1815 237.456 52.0009 241.532 49.7894 239.067C49.599 240.445 48.7912 241.775 49.9258 242.782L51.4352 241.028C51.7563 243.362 50.8842 245.151 50.5158 246.746C50.1524 248.337 50.3258 249.718 52.6821 251.244L54.7855 249.553C55.091 252.318 55.4626 254.626 50.2592 255.683L48.6882 252.831C48.7792 257.424 49.0948 260.198 51.8251 264.027L51.9798 262.663C52.6228 263.273 53.2489 264.205 53.8647 265.377C54.1747 265.961 54.4733 266.611 54.7865 267.3C55.0998 267.989 55.4121 268.727 55.7241 269.505C56.9723 272.616 58.2159 276.354 59.5008 280.076C60.1432 281.937 60.7958 283.794 61.4645 285.566C62.1346 287.338 62.8109 289.031 63.5412 290.539C64.9862 293.566 66.5105 295.941 68.1527 297.028L72.1525 294.975L75.6069 298.727C75.6482 298.281 62.4857 297.001 63.7953 296.616C64.2207 304.777 68.2948 346.717 65.8665 354.137C63.7203 357.167 59.482 354.771 58.8433 354.746C60.4543 358.372 63.164 356.256 62.9084 359.362C62.2065 360.22 59.7425 359.235 59.1535 358.767C59.6706 360.119 58.3102 361.401 60.1973 361.476C61.609 359.754 66.6294 360.398 69.8562 359.629L69.5397 363.623L66.3771 363.495C66.3077 364.386 75.0758 365.616 73.4924 369.557C72.9077 372.87 72.9374 376.319 73.0608 379.765C73.1876 383.208 73.3938 386.655 73.1362 389.977C71.2403 389.905 70.076 388.532 68.9202 387.155C68.8517 388.046 69.3813 389.392 68.0472 390.234C71.3401 388.576 70.3657 392.98 71.7341 391.704C79.609 396.43 72.7665 402.834 78.1431 407.031C81.6192 407.158 111.498 408.934 141.54 410.651C171.581 412.369 201.784 414.026 205.911 413.953C205.804 415.281 205.698 416.602 205.031 417.018C206.961 416.642 207.802 414.021 206.647 412.657L202.217 412.496C200.562 409.338 204.818 411.704 204.418 408.6L212.39 379.736Z" fill="#1D4E6B"/>
<path d="M141.832 329.555C153.307 296.254 135.613 259.956 102.312 248.481C69.0114 237.006 32.7135 254.7 21.2387 288.001C9.76395 321.302 27.4576 357.6 60.7586 369.075C94.0596 380.55 130.357 362.856 141.832 329.555Z" fill="#FF931C"/>
<path d="M60.4803 350.154C61.014 348.605 60.1911 346.917 58.6422 346.383C57.0933 345.85 55.405 346.672 54.8713 348.221C54.3376 349.77 55.1606 351.458 56.7095 351.992C58.2584 352.526 59.9466 351.703 60.4803 350.154Z" fill="#FA7D35"/>
<path d="M119.69 339.182C120.224 337.633 119.401 335.944 117.852 335.411C116.303 334.877 114.615 335.7 114.081 337.249C113.548 338.798 114.371 340.486 115.919 341.02C117.468 341.553 119.157 340.73 119.69 339.182Z" fill="#FA7D35"/>
<path d="M106.797 350.426C107.932 347.134 106.183 343.545 102.89 342.411C99.5977 341.276 96.009 343.026 94.8745 346.318C93.74 349.61 95.4893 353.199 98.7817 354.334C102.074 355.468 105.663 353.719 106.797 350.426Z" fill="#FA7D35"/>
<path d="M83.8827 355.081C85.0172 351.788 83.2678 348.199 79.9754 347.065C76.6829 345.93 73.0942 347.68 71.9597 350.972C70.8252 354.265 72.5746 357.853 75.867 358.988C79.1594 360.122 82.7482 358.373 83.8827 355.081Z" fill="#FA7D35"/>
<path d="M87.5087 255.81L86.776 256.313L87.4626 256.878C88.5451 257.767 86.6956 258.673 84.3329 258.41C83.3946 258.305 82.4292 258.387 81.7511 258.629L81.7511 258.629C80.0436 259.237 77.1358 258.736 76.8307 257.78C76.7096 257.4 76.13 257.052 75.2811 256.848L75.281 256.848C73.1432 256.334 73.1957 255.118 75.3698 254.791C76.2332 254.66 76.8405 254.363 76.994 253.995C77.3803 253.07 80.3204 252.82 81.9692 253.573C82.624 253.872 83.5788 254.037 84.5226 254.014C86.8992 253.955 88.6639 255.017 87.5087 255.81Z" fill="#003858"/>
<path d="M160.846 71.485C150.036 30.353 119.099 20.7372 85.2502 30.4799C51.402 40.2226 27.9737 67.4185 37.7164 101.267C47.4591 135.115 82.7965 154.657 116.645 144.914C150.493 135.171 169.799 105.551 160.846 71.485" fill="#FF3D3D"/>
<path d="M148.479 67.8422C144.099 52.6235 133.017 78.4663 113.077 91.4082C99.7928 100.03 72.0839 106.277 76.4644 121.496C80.8448 136.715 110.195 145.741 130.812 131.576C161.5 110.491 152.86 83.0608 148.479 67.8422Z" fill="#C03E3B"/>
<path d="M93.6732 30.7143C92.7707 27.5786 86.5661 34.032 77.4473 38.1408C71.3724 40.878 59.4161 43.9633 60.3186 47.099C61.2212 50.2348 72.9325 50.4645 82.4086 46.0409C96.5138 39.4564 94.5758 33.8501 93.6732 30.7143Z" fill="#C03E3B"/>
<path d="M75.5493 39.9638L75.5667 39.7133C75.2519 39.5313 75.4276 39.9356 75.1508 39.7057C75.0986 39.3041 74.6701 39.4549 74.6044 39.2182C74.6008 39.2464 74.4611 39.1712 74.4498 39.2797C74.444 39.0738 74.3182 39.1492 74.2418 39.0489C74.2211 38.9795 74.2756 39.0099 74.3099 38.9707L74.1275 38.7833C74.039 38.7921 73.9974 38.8848 74.0767 38.9572C73.8123 38.8278 73.0597 38.4058 72.3413 37.9523C71.6166 37.4994 70.9217 37.0252 70.6826 36.8031C70.7838 36.72 70.9155 36.9188 71.0315 36.7571C70.9298 36.5478 70.8238 36.657 70.7985 36.4952C70.6612 36.7608 70.4859 36.3589 70.3011 36.5944L70.312 36.3961L70.2171 36.4542C69.6922 35.8628 70.1064 36.2699 69.5907 35.9483C69.3077 35.7136 69.2352 35.3753 69.0502 35.3485C69.0744 35.3635 69.1672 35.3036 69.1052 35.2069C69.0504 35.3485 68.9378 34.958 68.8589 35.0845C68.7915 35.0135 68.5504 34.8651 68.6872 34.7156C68.6186 34.7899 68.3967 34.6824 68.4973 34.8612C68.4243 34.8162 68.348 34.7986 68.3104 34.7181L68.416 34.7235C68.1876 34.5276 68.0163 34.5983 67.9123 34.3024L68.0217 34.2812C67.8839 34.1693 67.7688 34.0693 67.6604 34.2382L67.7882 34.4022C67.5558 34.233 67.4232 34.1293 67.2577 33.886L67.3279 33.9273C67.1288 33.5343 65.9065 32.5448 65.7356 32.1458L65.8708 32.0428L65.7051 31.786C65.7289 31.798 65.6944 32.3818 65.7231 32.3384C65.6228 32.2729 65.4172 32.1387 65.1595 31.9703C64.9053 31.8145 64.596 31.6165 64.2961 31.454C63.6889 31.1045 63.1145 30.8721 62.9439 30.8675C62.8051 30.9133 62.9161 31.1455 62.9164 31.1744C62.7534 31.0417 62.847 30.9539 62.7061 30.913C62.668 30.9308 62.7149 31.0591 62.7362 31.0938C62.674 31.0452 62.6229 31.0977 62.6165 31.0088C62.6894 30.9659 62.6561 30.7295 62.6873 30.5927L62.5071 30.5548L62.5185 30.7012C62.4801 30.6931 62.4058 30.2752 62.2273 30.2929C61.934 30.2739 61.6087 30.1342 61.3343 30.1357C61.3521 30.2253 61.4184 30.2872 61.4834 30.3481C61.4471 30.347 61.3874 30.3154 61.363 30.374C61.4065 30.2275 61.2305 30.2504 61.2727 30.1925C61.207 30.0935 61.1426 30.0364 61.0807 30.0028C61.0211 29.9766 60.964 29.9735 60.9086 29.9738C60.7972 29.9744 60.6941 29.9885 60.5742 29.8576C60.5273 29.6906 60.0947 28.2871 59.5819 26.8735C59.0771 25.4604 58.4953 24.0447 58.4372 23.8499C58.3407 23.8625 58.245 23.8758 58.2252 23.91C58.2214 23.8165 58.4035 23.7606 58.5222 23.8078L58.5996 24.016C58.8543 24.0776 58.6197 23.8886 58.8546 23.8922C58.8226 23.7203 58.5968 23.6928 58.4019 23.6873C58.5662 23.6577 58.7057 23.5251 58.8248 23.7098C58.9679 23.6319 58.7518 23.5009 58.9306 23.4202C59.0852 23.4657 59.3075 23.6504 59.4469 23.5562L59.4376 23.5259C59.6169 23.4491 59.7833 23.5247 59.9412 23.6004C60.0989 23.6863 60.2487 23.7726 60.4145 23.714L60.3675 23.651C60.4801 23.5759 60.751 23.7376 60.9647 23.6882C60.9035 23.7068 60.8622 23.8159 60.9992 23.868C61.247 23.8236 61.4328 23.9733 61.613 23.8908C61.613 23.8908 61.6612 23.9433 61.7094 23.9956C61.7578 24.0472 61.8041 24.1024 61.8041 24.1024C62.2426 24.2185 63.3377 24.6282 64.3344 25.1805C65.3374 25.722 66.2638 26.3385 66.6355 26.5777L66.6103 26.5364C67.7641 27.2916 69.9471 28.8068 70.9242 29.7464C71.1242 29.7256 71.3377 29.9176 71.517 30.0003C71.4072 29.9899 71.4118 30.1099 71.4864 30.1567C71.9963 30.5039 71.4937 30.2756 71.9884 30.7012C72.2657 30.9768 72.9689 31.4743 73.66 31.9143C74.3485 32.3481 75.0235 32.7199 75.2785 32.8092C75.4978 33.1893 75.8573 33.2349 76.0844 33.5173L76.0679 33.4514C76.1985 33.5788 76.6557 33.8124 77.105 34.0205C77.5551 34.2287 77.9875 34.3892 78.1328 34.4981L78.0913 34.5119C78.3424 34.7706 78.3156 34.4945 78.5126 34.4975C78.4799 34.7441 78.6966 34.9818 78.78 35.0321L78.7768 34.9741C78.8951 35.0526 79.1842 35.3846 79.3901 35.4761L79.3734 35.3288C79.5458 35.5192 79.8612 35.554 79.9713 35.5737C80.0966 35.5586 80.2565 35.5241 80.4131 35.4849C80.5679 35.4385 80.7461 35.4618 80.9241 35.5421C80.9241 35.5421 80.9464 35.4333 80.9687 35.3245C80.9879 35.2166 81.0072 35.1084 81.0072 35.1084L81.0474 35.1499C81.0474 35.1499 81.1587 35.471 81.331 35.9685C81.5032 36.4665 81.7392 37.1412 81.9757 37.85C82.4444 39.2657 82.9182 40.8252 82.6756 41.389L82.7289 41.5375L82.5692 41.5242C82.4019 41.6042 82.2731 41.433 82.3222 41.5818L82.5729 41.5556C82.397 41.605 82.5472 41.6799 82.6423 41.7617C82.5669 41.779 82.4944 41.7994 82.4422 41.8469C82.3904 41.7906 82.4545 41.7842 82.4759 41.7509C82.36 41.7034 82.1866 41.5651 82.078 41.6221C81.8862 41.6238 82.1193 41.8631 81.8917 41.864C80.6975 41.8987 79.4991 41.7345 78.3243 41.2332C78.2963 41.281 78.328 41.2916 78.3616 41.3316C78.185 41.2295 78.0164 41.1542 77.8557 41.0751C77.6976 40.9928 77.5435 40.9116 77.3895 40.8086C77.2983 40.8303 77.2676 40.904 77.2371 40.9492C77.2528 40.9263 77.1511 40.858 76.9934 40.7649C76.8391 40.6688 76.6277 40.5487 76.4137 40.4313C75.984 40.1978 75.5682 39.9545 75.5493 39.9638Z" fill="#003858"/>
<path d="M124.775 145.485C75.2868 190.326 20.8617 203.547 25.5672 214.488C33.7081 233.418 101.937 211.388 147.971 162.753C194.005 114.119 219.196 61.2253 206.974 50.3616C198.283 42.6355 158.057 115.328 124.775 145.485Z" fill="#E4A52D"/>
<path d="M116.691 137.743C99.1947 153.431 40.013 191.615 33.5911 202.018C26.8111 213.001 93.9201 178.083 123.371 152.396C158.657 121.619 210.871 55.7549 202.576 48.8146C196.676 43.879 151.714 106.34 116.691 137.743Z" fill="#FFCC34"/>
<path d="M209.423 40.0561L209.198 39.9881C209.238 39.6322 209.475 39.9334 209.455 39.5938C209.143 39.4089 209.541 39.0576 209.379 38.9157C209.404 38.9225 209.429 38.7645 209.53 38.7904C209.359 38.7135 209.501 38.6215 209.463 38.5152C209.416 38.4719 209.408 38.5337 209.353 38.5526L209.306 38.3168C209.369 38.2365 209.474 38.229 209.487 38.3285C209.541 38.0356 209.651 37.1805 209.707 36.3439C209.77 35.5017 209.792 34.6788 209.749 34.3747C209.615 34.4416 209.704 34.6354 209.494 34.689C209.377 34.52 209.536 34.4576 209.413 34.3773C209.726 34.34 209.489 34.0333 209.806 33.9403L209.629 33.8814L209.737 33.8117C209.554 33.1079 209.648 33.6428 209.69 33.0412C209.664 32.6907 209.418 32.5035 209.51 32.3191C209.507 32.3473 209.399 32.4146 209.354 32.3219C209.51 32.3191 209.244 32.0758 209.401 32.045C209.382 31.9561 209.404 31.6749 209.191 31.753C209.297 31.7136 209.342 31.4651 209.433 31.6231C209.44 31.5378 209.473 31.4606 209.426 31.396L209.366 31.4984C209.339 31.2126 209.506 31.0737 209.316 30.8717L209.23 30.9685C209.219 30.7978 209.205 30.654 209.418 30.6102L209.479 30.7881C209.479 30.5098 209.472 30.3449 209.366 30.1026L209.358 30.1841C209.254 30.0239 209.178 29.5638 209.097 29.1035C209.024 28.6501 208.942 28.1924 208.828 28.0443L208.653 28.1379L208.538 27.891C208.534 27.9179 209.056 28.0859 209.001 28.0988C209.008 27.9796 209.022 27.7351 209.04 27.4287C209.07 27.131 209.092 26.7619 209.148 26.4168C209.238 25.7094 209.412 25.0618 209.519 24.8887C209.648 24.7632 209.776 24.9492 209.801 24.959C209.795 24.7531 209.652 24.8148 209.717 24.6667C209.759 24.6355 209.837 24.7213 209.851 24.7526C209.855 24.6794 209.93 24.6387 209.859 24.6056C209.774 24.6672 209.592 24.5585 209.454 24.5471L209.539 24.3518L209.658 24.409C209.676 24.3669 209.364 24.1619 209.496 23.9865C209.678 23.6848 209.774 23.3112 209.962 23.0243C210.028 23.0674 210.038 23.1541 210.047 23.2395C210.071 23.2009 210.083 23.1292 210.151 23.1195C209.993 23.1253 210.132 22.9465 210.053 22.9751C209.882 22.5836 210.313 22.4701 210.236 22.1565C210.122 22.0678 209.16 21.2672 208.231 20.4063C207.298 19.5512 206.398 18.638 206.262 18.5326C206.33 18.4476 206.398 18.3636 206.439 18.3543C206.359 18.3262 206.203 18.4778 206.175 18.599L206.311 18.7261C206.214 18.9764 206.188 18.71 206.052 18.9258C205.921 18.8493 206.03 18.6359 206.14 18.4566C206.017 18.5987 205.819 18.6892 205.91 18.8485C205.757 18.9574 205.77 18.7245 205.594 18.8645C205.538 19.0151 205.569 19.2718 205.403 19.3715L205.382 19.3544C205.03 19.6404 205.246 20.031 204.95 20.2971L204.924 20.2356C204.787 20.316 204.771 20.6105 204.585 20.7897C204.641 20.7396 204.763 20.7348 204.719 20.8752C204.528 21.0889 204.542 21.3044 204.36 21.4436L204.422 21.6835C204.332 21.9033 204.207 22.2962 204.074 22.7736C204.018 23.0122 203.958 23.2718 203.895 23.542C203.839 23.8114 203.796 24.0895 203.747 24.3686C203.575 25.4812 203.513 26.5649 203.489 26.9943L203.469 26.9566C203.435 27.6222 203.392 28.6115 203.395 29.5834C203.395 30.5586 203.44 31.5093 203.536 32.1442C203.395 32.3265 203.428 32.5959 203.388 32.7946C203.447 32.6869 203.547 32.733 203.541 32.8202C203.524 33.4254 203.639 32.8685 203.698 33.4866C203.763 33.8455 203.756 34.6878 203.704 35.4983C203.65 36.3065 203.546 37.0791 203.462 37.355C203.653 37.6984 203.461 38.0558 203.562 38.3743L203.516 38.3357C203.543 38.5045 203.455 39.0267 203.344 39.5331C203.238 40.0445 203.091 40.5226 203.093 40.7048L203.133 40.6689C203.183 40.9959 202.97 40.8862 202.843 41.0847C203.076 41.1307 203.144 41.427 203.125 41.5212L203.077 41.4995C203.065 41.6444 203.171 42.046 203.105 42.2764L202.988 42.2149C203.043 42.454 202.856 42.7792 202.799 42.9026C202.616 43.174 202.197 43.4667 202.115 43.8993C202.115 43.8993 202.001 43.8982 201.887 43.897C201.775 43.8938 201.663 43.8905 201.663 43.8905L201.672 43.9434C201.672 43.9434 202.521 44.7149 203.485 45.5326C204.45 46.3432 205.547 47.186 206.185 47.1156L206.284 47.2049L206.367 47.0543C206.537 46.9225 206.465 46.757 206.565 46.8433L206.393 47.0662C206.541 46.9183 206.517 47.0768 206.532 47.1863C206.592 47.1219 206.653 47.0611 206.726 47.0265C206.707 46.9636 206.663 47.0205 206.622 47.0308C206.647 46.9108 206.635 46.7155 206.75 46.6312C206.867 46.4555 206.935 46.7366 207.073 46.5287C207.828 45.4487 208.442 44.3093 208.755 43.0612C208.814 43.0504 208.803 43.0833 208.817 43.1271C208.865 42.7352 208.973 42.409 208.983 42.0563C209.059 41.9786 209.142 41.9744 209.2 41.9609C209.142 41.9741 209.218 41.4967 209.278 41.022C209.352 40.5425 209.404 40.0698 209.423 40.0561Z" fill="#003858"/>
<path d="M157.462 169.676C121.292 214.919 73.8044 231.523 80.491 241.186C92.0592 257.906 150.426 232.08 182.593 183.636C214.76 135.193 226.75 84.5464 213.132 75.5698C203.448 69.1859 181.788 139.25 157.462 169.676Z" fill="#E4A52D"/>
<path d="M148.336 163.228C135.513 179.071 88.9596 218.993 85.2451 229.075C81.3232 239.719 135.902 202.147 157.64 176.14C183.686 144.98 217.887 80.204 208.736 74.5093C202.229 70.4595 174.005 131.514 148.336 163.228Z" fill="#FFCC34"/>
<path d="M220.499 68.3758L220.343 68.2038C220.549 67.9396 220.601 68.3037 220.744 68.0214C220.573 67.7116 221.074 67.6372 221.007 67.4399C221.026 67.4585 221.121 67.3452 221.192 67.418C221.084 67.2682 221.248 67.2686 221.267 67.1643C221.249 67.1058 221.213 67.1508 221.158 67.1374L221.232 66.9256C221.323 66.8942 221.415 66.9428 221.377 67.0284C221.563 66.8232 222.064 66.2008 222.513 65.5704C222.969 64.9376 223.384 64.3025 223.494 64.0416C223.35 64.0253 223.331 64.2236 223.129 64.1572C223.112 63.9641 223.276 63.9971 223.211 63.8705C223.492 64.0023 223.441 63.6399 223.75 63.7299L223.63 63.5925L223.755 63.5938C223.94 62.947 223.761 63.4147 224.086 62.9649C224.232 62.6765 224.116 62.4034 224.281 62.3055C224.266 62.3265 224.142 62.3231 224.149 62.2276C224.281 62.3056 224.175 61.9781 224.322 62.0351C224.348 61.9556 224.501 61.7468 224.285 61.698C224.393 61.7219 224.55 61.5505 224.551 61.7213C224.597 61.658 224.662 61.613 224.654 61.5393L224.554 61.5881C224.668 61.3507 224.874 61.3283 224.812 61.0723L224.694 61.1036C224.766 60.9649 224.823 60.8444 225.022 60.9191L224.988 61.0909C225.121 60.8709 225.193 60.7402 225.22 60.4955L225.174 60.555C225.151 60.1889 225.796 58.9602 225.742 58.6018L225.553 58.5857L225.573 58.3314C225.556 58.3501 225.912 58.7533 225.86 58.7345C225.922 58.6449 226.048 58.4613 226.206 58.2311C226.368 58.0113 226.56 57.7379 226.762 57.494C227.161 56.9853 227.592 56.5745 227.755 56.4986C227.916 56.4723 227.936 56.6857 227.952 56.7066C228.037 56.5422 227.898 56.5191 228.012 56.43C228.059 56.4265 228.084 56.5383 228.083 56.5722C228.116 56.511 228.195 56.5267 228.152 56.4604C228.058 56.4607 227.96 56.2772 227.854 56.1925L228.008 56.0888L228.078 56.1985C228.111 56.1764 227.953 55.8455 228.136 55.7823C228.411 55.6437 228.651 55.4053 228.919 55.2896C228.951 55.3613 228.921 55.4339 228.891 55.5051C228.926 55.4889 228.967 55.4408 229.023 55.4724C228.9 55.3861 229.084 55.3276 229.011 55.3041C229.02 55.2051 229.051 55.1369 229.093 55.0865C229.136 55.0424 229.19 55.0159 229.245 54.9924C229.353 54.9455 229.462 54.9117 229.506 54.767C229.46 54.6275 229.106 53.4385 228.826 52.2083C228.537 50.9819 228.322 49.7206 228.272 49.5564C228.373 49.5244 228.473 49.4932 228.511 49.5092C228.463 49.4407 228.255 49.4782 228.165 49.5625L228.205 49.7444C227.991 49.897 228.115 49.6618 227.888 49.7644C227.825 49.6276 228.029 49.5118 228.216 49.425C228.04 49.4738 227.831 49.4382 227.817 49.6211C227.634 49.6263 227.773 49.4404 227.554 49.4588C227.428 49.5572 227.314 49.784 227.126 49.7759L227.118 49.7502C226.901 49.7716 226.781 49.8965 226.669 50.018C226.563 50.1465 226.465 50.2721 226.271 50.3007L226.282 50.2356C226.131 50.2297 225.956 50.4607 225.721 50.5163C225.79 50.5036 225.891 50.5642 225.786 50.6598C225.52 50.7335 225.422 50.9197 225.201 50.9374C225.201 50.9374 225.183 50.9955 225.165 51.0534C225.146 51.1109 225.132 51.1702 225.132 51.1702C224.769 51.4399 223.928 52.1993 223.262 53.0189C222.584 53.8335 222.022 54.6692 221.792 54.9985L221.794 54.9583C221.087 55.99 219.797 58.004 219.364 59.0925C219.158 59.1627 219.056 59.3911 218.927 59.5265C219.028 59.4723 219.09 59.5602 219.043 59.6255C218.738 60.0911 219.101 59.7137 218.854 60.2289C218.736 60.5443 218.326 61.1997 217.896 61.8089C217.465 62.4125 217.012 62.9659 216.813 63.1384C216.81 63.5039 216.485 63.6896 216.419 63.9883L216.399 63.9342C216.342 64.0809 216.026 64.4428 215.703 64.7829C215.38 65.1236 215.047 65.4225 214.965 65.5623L215.014 65.5546C214.912 65.8467 214.786 65.6376 214.595 65.7236C214.763 65.8862 214.683 66.1486 214.63 66.2201L214.601 66.1772C214.529 66.2838 214.431 66.6444 214.281 66.7977L214.216 66.685C214.153 66.8947 213.865 67.0539 213.769 67.1149C213.638 67.1574 213.464 67.2007 213.289 67.2393C213.113 67.272 212.952 67.3645 212.823 67.4977C212.823 67.4977 212.741 67.4294 212.66 67.361C212.581 67.2919 212.503 67.2227 212.503 67.2227L212.487 67.2695C212.487 67.2695 212.555 67.5468 212.662 67.9762C212.769 68.406 212.912 68.9895 213.073 69.5977C213.397 70.8106 213.797 72.1287 214.344 72.4291L214.374 72.5581L214.523 72.4807C214.73 72.4667 214.761 72.2893 214.795 72.4167L214.536 72.5047C214.735 72.4653 214.63 72.5827 214.582 72.6818C214.665 72.662 214.747 72.6458 214.824 72.6576C214.844 72.5952 214.778 72.618 214.739 72.6033C214.825 72.5199 214.918 72.3471 215.055 72.3416C215.243 72.2612 215.148 72.5319 215.37 72.4356C216.552 71.9522 217.629 71.3246 218.496 70.4656C218.55 70.4879 218.525 70.509 218.514 70.5519C218.63 70.4037 218.753 70.2781 218.866 70.153C218.974 70.0269 219.08 69.9031 219.173 69.7638C219.273 69.7404 219.344 69.7802 219.399 69.7996C219.371 69.7898 219.432 69.6976 219.534 69.5639C219.631 69.4295 219.771 69.2535 219.915 69.0784C220.204 68.7283 220.475 68.3772 220.499 68.3758Z" fill="#003858"/>
<path d="M212.24 384.424C196.57 411.319 167.649 408.795 143.349 394.637C119.049 380.479 108.001 355.137 123.671 328.242C130.994 315.674 163.739 302.222 170.416 297.115C187.685 283.908 202.59 276.953 215.534 284.494C239.834 298.652 227.91 357.529 212.24 384.424Z" fill="#78CD68"/>
<path d="M214.751 349.161C216.342 334.173 203.371 350.392 189.21 351.312C179.776 351.926 173.959 348.428 158.922 358.559C132.094 376.636 152.962 403.671 178.511 399.103C215.677 392.458 212.836 367.191 214.751 349.161Z" fill="#70B748"/>
<path d="M217.351 280.697L217.215 280.565C217.304 280.306 217.407 280.62 217.45 280.353C217.277 280.101 217.599 279.972 217.517 279.806C217.534 279.82 217.576 279.708 217.637 279.763C217.537 279.645 217.647 279.624 217.64 279.53C217.617 279.48 217.601 279.525 217.562 279.52L217.572 279.324C217.627 279.284 217.698 279.315 217.688 279.396C217.775 279.191 217.994 278.578 218.178 277.964C218.365 277.347 218.525 276.734 218.55 276.489C218.45 276.493 218.475 276.671 218.327 276.638C218.28 276.47 218.396 276.478 218.329 276.374C218.541 276.455 218.439 276.142 218.664 276.181L218.558 276.076L218.641 276.061C218.645 275.466 218.612 275.902 218.746 275.463C218.79 275.19 218.661 274.964 218.754 274.857C218.747 274.877 218.664 274.89 218.651 274.805C218.754 274.857 218.622 274.581 218.73 274.613C218.733 274.539 218.797 274.335 218.643 274.32C218.72 274.327 218.793 274.156 218.825 274.307C218.845 274.245 218.88 274.197 218.861 274.133L218.803 274.189C218.835 273.965 218.969 273.918 218.88 273.701L218.806 273.743C218.829 273.612 218.845 273.498 218.992 273.538L219.001 273.694C219.049 273.483 219.073 273.359 219.045 273.139L219.026 273.198C218.942 272.877 219.145 271.711 219.042 271.401L218.913 271.411L218.879 271.184C218.871 271.203 219.184 271.513 219.146 271.503C219.171 271.416 219.221 271.238 219.284 271.015C219.351 270.8 219.429 270.535 219.519 270.293C219.691 269.794 219.903 269.376 219.999 269.288C220.102 269.244 220.155 269.43 220.169 269.447C220.196 269.291 220.098 269.288 220.158 269.195C220.189 269.186 220.227 269.281 220.232 269.311C220.243 269.253 220.299 269.257 220.258 269.204C220.194 269.216 220.094 269.067 220.008 269.005L220.092 268.894L220.159 268.982C220.177 268.958 220.009 268.686 220.121 268.607C220.279 268.45 220.395 268.209 220.553 268.072C220.588 268.132 220.581 268.2 220.575 268.266C220.595 268.247 220.613 268.2 220.657 268.22C220.558 268.16 220.67 268.085 220.617 268.073C220.605 267.985 220.613 267.921 220.632 267.871C220.653 267.826 220.684 267.796 220.716 267.769C220.78 267.713 220.846 267.67 220.849 267.536C220.792 267.419 220.334 266.415 219.916 265.365C219.495 264.319 219.116 263.234 219.051 263.095C219.113 263.054 219.174 263.014 219.203 263.023C219.158 262.969 219.026 263.028 218.981 263.114L219.042 263.27C218.927 263.432 218.966 263.208 218.833 263.328C218.765 263.215 218.881 263.087 218.99 262.986C218.881 263.052 218.734 263.047 218.759 263.211C218.637 263.238 218.695 263.057 218.552 263.101C218.487 263.204 218.452 263.419 218.325 263.435L218.315 263.414C218.174 263.46 218.116 263.586 218.064 263.707C218.016 263.834 217.974 263.958 217.85 264.008L217.845 263.949C217.743 263.963 217.669 264.189 217.521 264.268C217.566 264.248 217.644 264.289 217.592 264.386C217.428 264.486 217.396 264.663 217.252 264.706C217.252 264.706 217.25 264.76 217.249 264.813C217.247 264.866 217.249 264.921 217.249 264.921C217.056 265.205 216.634 265.983 216.341 266.791C216.038 267.597 215.818 268.406 215.725 268.726L215.719 268.69C215.437 269.691 214.949 271.633 214.861 272.649C214.736 272.737 214.71 272.952 214.649 273.088C214.707 273.027 214.765 273.097 214.746 273.16C214.628 273.61 214.801 273.231 214.732 273.717C214.712 274.011 214.559 274.641 214.384 275.234C214.208 275.822 214.008 276.368 213.907 276.546C213.972 276.869 213.789 277.074 213.801 277.346L213.777 277.301C213.767 277.438 213.622 277.797 213.469 278.139C213.316 278.481 213.149 278.787 213.12 278.921L213.151 278.908C213.138 279.179 213.014 279.01 212.903 279.11C213.045 279.232 213.041 279.474 213.018 279.544L212.991 279.51C212.963 279.613 212.964 279.944 212.892 280.098L212.827 280.007C212.824 280.201 212.661 280.378 212.608 280.444C212.529 280.498 212.42 280.559 212.31 280.615C212.198 280.666 212.108 280.768 212.046 280.903C212.046 280.903 211.979 280.853 211.911 280.803C211.846 280.752 211.78 280.701 211.78 280.701L211.778 280.744C211.778 280.744 211.876 280.98 212.027 281.345C212.179 281.711 212.383 282.208 212.605 282.724C213.048 283.753 213.561 284.865 213.984 285.06L214.028 285.17L214.113 285.083C214.249 285.044 214.237 284.884 214.283 284.992L214.126 285.103C214.252 285.042 214.204 285.159 214.19 285.253C214.242 285.225 214.294 285.2 214.348 285.201C214.349 285.143 214.309 285.172 214.28 285.164C214.323 285.079 214.353 284.915 214.444 284.892C214.554 284.797 214.541 285.048 214.672 284.935C215.374 284.357 215.978 283.666 216.399 282.797C216.439 282.81 216.426 282.832 216.427 282.871C216.477 282.725 216.536 282.599 216.588 282.474C216.638 282.349 216.685 282.226 216.721 282.091C216.785 282.058 216.839 282.084 216.879 282.094C216.859 282.089 216.883 282 216.926 281.869C216.966 281.738 217.027 281.565 217.091 281.392C217.22 281.046 217.336 280.701 217.351 280.697Z" fill="#003858"/>
</svg>
