<svg width="494" height="260" viewBox="0 0 494 260" fill="none" xmlns="http://www.w3.org/2000/svg">
<path d="M0.282104 195.825C1.67352 199.689 4.28323 200.2 6.74406 200.97C4.95842 197.239 2.97987 195.551 0.282104 195.825Z" fill="#1D4E6B"/>
<path d="M6.79081 201.054C6.80064 201.034 6.82012 201.02 6.83173 201.005C6.797 200.999 6.77241 200.982 6.74408 200.969C6.76238 201.007 6.77733 201.018 6.79081 201.054Z" fill="#1D4E6B"/>
<path d="M448.75 41.3128C449.795 42.0863 450.743 44.9454 448.581 45.485C444.379 43.0979 441.603 45.6812 438.52 42.6562L435.682 46.6378C432.073 46.5427 425.812 46.9125 418.223 47.5366C414.429 47.8486 410.303 48.2243 406.01 48.6372C401.731 49.0511 397.285 49.481 392.839 49.9111C383.953 50.8083 375.065 51.7059 367.498 52.4701C359.974 53.175 353.76 53.7291 350.174 53.9372L350.731 53.3046C348 53.5882 344.908 53.8418 341.545 54.0797C340.705 54.1372 339.847 54.1957 338.973 54.2555C338.537 54.2838 338.096 54.3125 337.652 54.3414C337.211 54.3652 336.767 54.3893 336.319 54.4135C334.528 54.5033 332.68 54.5959 330.787 54.6908C327.001 54.8677 323.033 55.053 318.972 55.2426C316.941 55.3407 314.887 55.44 312.821 55.5398C310.771 55.6244 308.709 55.7094 306.646 55.7946C302.524 55.9698 298.395 56.1724 294.346 56.4183C293.334 56.483 292.327 56.5474 291.326 56.6113C290.825 56.6458 290.327 56.6801 289.829 56.7144C289.336 56.7428 288.844 56.7712 288.354 56.7996C286.396 56.9155 284.467 57.0448 282.58 57.1898C278.805 57.4796 275.194 57.8319 271.833 58.2639C270.992 58.3775 270.168 58.4888 269.36 58.5978C268.554 58.7028 267.764 58.8132 266.992 58.9295C265.448 59.162 263.978 59.4178 262.591 59.6994C259.274 55.7212 254.557 56.4398 251.035 55.2245C252.963 56.9039 252.208 59.6034 250.666 59.3858C239.755 58.3562 249.851 62.0024 238.731 63.0492C237.123 63.4101 234.954 63.6213 232.369 63.7074C231.084 63.7575 229.661 63.7421 228.164 63.7119C226.665 63.6786 225.079 63.6161 223.423 63.5275C220.113 63.3503 216.526 63.0689 212.809 62.7093C210.959 62.5343 209.042 62.32 207.116 62.0919C205.19 61.8642 203.249 61.6198 201.311 61.3624C197.436 60.8474 193.575 60.2798 189.874 59.6862C188.029 59.3908 186.2 59.0832 184.435 58.7739C182.67 58.4646 180.964 58.1521 179.334 57.84C172.816 56.5912 167.531 55.3473 164.654 54.3232C158.139 59.5407 150.473 54.7277 144.166 57.8807L144.844 56.5884C138.16 58.2254 100.915 50.5497 93.1402 52.0906L94.1412 52.9625C87.2959 56.0728 88.4564 49.9338 83.2464 47.684C83.6904 54.0788 77.8049 57.3359 75.5962 57.6837L75.7331 56.2994C72.3873 57.1692 64.6947 62.2344 59.2111 62.7566L59.5552 59.2931C57.2112 61.0268 53.9151 61.3608 50.7977 61.3158C47.6799 61.2671 44.7373 60.8061 43.0972 60.8982C35.6804 59.0432 24.3683 52.3505 14.2142 56.3864L8.09944 46.12L7.1201 47.051C7.1201 47.051 3.49496 76.8165 1.42266 109.86C-0.652247 142.905 -1.18159 179.222 4.92033 192.329L4.59234 195.785L7.19454 195.482C10.239 197.363 11.8146 193.42 11.483 196.873L7.24569 196.212C10.3289 197.391 8.08795 199.108 6.83016 201.006C8.1201 201.413 9.36891 201.901 10.368 203.022C11.0286 201.723 9.96665 201.558 9.50774 200.777C11.227 199.648 13.6767 196.517 15.663 198.231C18.8443 198.735 15.6689 203.86 19.3799 204.445C29.1527 206.336 38.7605 208.542 48.4036 210.336C58.0387 212.165 67.713 213.561 77.6395 213.769C78.0336 215.235 77.4986 215.151 76.9009 215.763C82.931 214.632 88.219 215.475 93.7152 214.288C95.1619 215.938 95.4869 218.103 95.8744 219.572C95.0948 216.639 126.011 218.374 126.474 219.175L127.121 212.94C133.009 213.254 128.524 220.221 134.03 219.05C136.545 210.339 143.025 220.589 145.112 216.012C145.038 216.712 147.69 217.164 147.398 219.924C148.427 215.171 150.187 218.995 151.922 217.883C152.59 216.588 151.539 216.414 151.149 214.933L155.075 213.5C156.517 215.154 156.762 218.01 155.096 218.417C157.601 219.026 162.498 219.985 168.605 221.056C171.658 221.591 175.015 222.154 178.526 222.715C180.274 222.996 182.09 223.275 183.922 223.55C185.754 223.818 187.607 224.088 189.461 224.359C193.169 224.884 196.886 225.378 200.461 225.81C201.355 225.915 202.24 226.019 203.114 226.122C203.998 226.216 204.871 226.308 205.73 226.399C207.453 226.573 209.121 226.728 210.715 226.861C217.094 227.391 222.29 227.563 225.101 227.138C223.805 223.416 220.275 225.649 219.195 219.853C222.26 216.839 223.48 221.249 224.905 217.967C225.303 222.254 226.932 222.846 228.689 223.466C230.449 224.084 232.347 224.723 233.329 229.089L234.353 224.32L235.736 227.347C242.39 225.195 243.153 224.623 243.714 224.81C244.275 224.994 244.605 225.966 250.47 226.758C257.296 226.287 260.672 219.73 264.389 222.341C263.828 222.269 262.399 219.26 264.179 218.1C264.283 220.219 265.468 219.512 266.72 218.798C267.972 218.074 269.29 217.357 269.677 219.504C271.406 219.011 276.96 219.688 275.171 213.858C276.064 216.767 281.012 218.068 278.02 220.505C279.692 220.715 281.306 221.605 282.528 220.355L280.399 218.691C283.232 218.337 285.404 219.298 287.339 219.704C289.271 220.105 290.947 219.914 292.799 217.317L290.746 214.999C294.102 214.662 296.904 214.253 298.187 219.987L294.725 221.718C300.299 221.618 303.666 221.27 308.314 218.261L306.658 218.091C307.399 217.382 308.53 216.692 309.952 216.014C310.661 215.672 311.45 215.343 312.286 214.998C313.122 214.653 314.019 214.308 314.962 213.965C318.738 212.589 323.275 211.219 327.792 209.803C330.051 209.095 332.305 208.375 334.456 207.638C336.606 206.9 338.661 206.155 340.492 205.35C344.165 203.757 347.047 202.078 348.367 200.268L345.876 195.86L350.429 192.053C349.888 192.008 348.335 206.513 347.867 205.07C357.772 204.601 408.675 200.111 417.681 202.787C421.358 205.152 418.45 209.823 418.42 210.527C422.82 208.752 420.253 205.766 424.022 206.047C425.063 206.821 423.868 209.536 423.3 210.185C424.941 209.615 426.497 211.115 426.588 209.035C424.498 207.479 425.279 201.947 424.347 198.39L429.194 198.739L429.038 202.225C430.119 202.301 431.612 192.638 436.396 194.383C440.417 195.028 444.603 194.995 448.785 194.859C452.965 194.719 457.148 194.492 461.18 194.776C461.093 196.865 459.426 198.148 457.754 199.422C458.835 199.497 460.47 198.914 461.492 200.384C459.48 196.755 464.824 197.829 463.276 196.321C469.012 187.643 476.784 195.183 481.878 189.258C482.032 185.427 484.188 152.499 486.272 119.393C488.357 86.2858 490.368 53.0005 490.28 48.4532C491.891 48.5704 493.494 48.6877 494 49.4222C493.543 47.2956 490.362 46.3688 488.706 47.6421L488.511 52.5237C484.679 54.3481 487.55 49.6571 483.783 50.0983L448.75 41.3128Z" fill="#1D4E6B"/>
<path d="M169.155 109.194C170.245 62.338 140.412 42.724 101.596 42.724C62.7791 42.724 29.6775 64.3841 29.6775 103.201C29.6775 142.017 61.1446 173.484 99.9612 173.484C138.778 173.484 168.253 148 169.155 109.194" fill="#FF3D3D"/>
<path d="M157.169 101.566C157.169 84.1138 137.555 108.104 112.492 115.732C95.796 120.813 64.5468 118.983 64.5468 136.436C64.5468 153.888 92.8783 172.395 119.03 163.677C157.958 150.702 157.169 119.019 157.169 101.566Z" fill="#C03E3B"/>
<path d="M110.444 45.5399C110.444 41.9439 101.906 46.887 90.9966 48.4586C83.7287 49.5056 70.126 49.1285 70.126 52.7245C70.126 56.3205 82.4587 60.1337 93.8427 58.3376C110.788 55.6639 110.444 49.1359 110.444 45.5399Z" fill="#C03E3B"/>
<path d="M94.6822 51.4299C94.7006 51.4498 94.7242 51.4724 94.7589 51.5018C94.7305 51.4692 94.7054 51.4467 94.6822 51.4299Z" fill="#003858"/>
<path d="M97.4069 48.6722L97.4265 48.7379C97.436 48.7085 97.4256 48.6887 97.4069 48.6722Z" fill="#003858"/>
<path d="M93.0094 52.9782C93.0052 52.9703 93.0005 52.9659 92.9951 52.958C92.9684 52.9805 92.9324 53.0109 92.8736 53.0604L93.0094 52.9782Z" fill="#003858"/>
<path d="M101.578 41.5628L101.563 41.6144C101.572 41.5922 101.588 41.5811 101.578 41.5628Z" fill="#003858"/>
<path d="M99.2302 45.8583C99.1978 45.8253 99.1948 45.7949 99.1931 45.766C99.1728 45.7915 99.1699 45.8186 99.2302 45.8583Z" fill="#003858"/>
<path d="M90.6174 52.2818L90.7649 52.3441C90.7183 52.2996 90.6559 52.2675 90.6174 52.2818Z" fill="#003858"/>
<path d="M89.4624 54.1747C89.4708 54.1818 89.4773 54.1886 89.489 54.1969C89.4824 54.1841 89.4727 54.1783 89.4624 54.1747Z" fill="#003858"/>
<path d="M90.5036 54.0616C90.5081 54.0385 90.506 54.0036 90.504 53.9688C90.4879 53.9908 90.4634 54.0143 90.5036 54.0616Z" fill="#003858"/>
<path d="M90.4995 53.9203L90.5038 53.9706C90.5129 53.955 90.5186 53.9403 90.4995 53.9203Z" fill="#003858"/>
<path d="M103.659 34.485L103.718 34.5129C103.701 34.4947 103.68 34.4878 103.659 34.485Z" fill="#003858"/>
<path d="M91.093 51.2C91.0261 51.0575 91.2413 51.0861 91.1343 50.9905C91.108 51.0529 90.9638 51.0434 91.093 51.2Z" fill="#003858"/>
<path d="M98.5379 31.9288L98.5378 31.8859C98.5325 31.9053 98.5332 31.9183 98.5379 31.9288Z" fill="#003858"/>
<path d="M104.94 27.0166L104.939 27.0191C104.948 27.0257 104.955 27.0303 104.964 27.0373L104.94 27.0166Z" fill="#003858"/>
<path d="M105.222 26.6453C105.235 26.6755 105.247 26.7047 105.26 26.7372C105.281 26.6932 105.259 26.6664 105.222 26.6453Z" fill="#003858"/>
<path d="M105.412 22.3499C105.416 22.3644 105.42 22.3781 105.428 22.3918C105.431 22.3744 105.426 22.3606 105.412 22.3499Z" fill="#003858"/>
<path d="M99.0183 46.0994C99.001 46.1023 98.9877 46.1118 98.9724 46.1178C99.0022 46.1373 99.0256 46.1464 99.0183 46.0994Z" fill="#003858"/>
<path d="M96.674 41.8444L96.6746 41.8431L96.671 41.8417C96.6724 41.843 96.674 41.8444 96.674 41.8444Z" fill="#003858"/>
<path d="M95.3884 44.1529C95.3929 44.1551 95.3993 44.1585 95.4046 44.161C95.3989 44.1572 95.3961 44.1555 95.3912 44.1521L95.3884 44.1529Z" fill="#003858"/>
<path d="M95.6191 43.62C95.65 43.623 95.6765 43.6198 95.6971 43.612C95.6664 43.6084 95.6381 43.6099 95.6191 43.62Z" fill="#003858"/>
<path d="M95.3243 44.2059L95.3884 44.1539C95.343 44.1313 95.2924 44.1021 95.2574 44.0461L95.3243 44.2059Z" fill="#003858"/>
<path d="M94.8899 46.2759C94.8775 46.2531 94.855 46.2304 94.8118 46.208C94.8389 46.2447 94.8641 46.2639 94.8899 46.2759Z" fill="#003858"/>
<path d="M91.5034 50.74C91.5169 50.7421 91.5266 50.7416 91.5454 50.7462C91.5296 50.738 91.5156 50.7367 91.5034 50.74Z" fill="#003858"/>
<path d="M91.977 50.7383C91.9881 50.7273 91.9953 50.7065 91.9943 50.6675C91.966 50.6808 91.967 50.7083 91.977 50.7383Z" fill="#003858"/>
<path d="M95.4788 45.0377C95.4821 45.0153 95.4766 44.9887 95.442 44.9503C95.4313 44.9817 95.4526 45.0115 95.4788 45.0377Z" fill="#003858"/>
<path d="M91.9973 50.587L92.0686 50.5421C92.0572 50.532 92.0487 50.5244 92.0347 50.5119L91.9973 50.587Z" fill="#003858"/>
<path d="M91.4185 50.7959C91.4443 50.7775 91.4716 50.7457 91.505 50.7392C91.4316 50.7276 91.4104 50.7502 91.4185 50.7959Z" fill="#003858"/>
<path d="M94.0385 48.1973C94.0369 48.1931 94.0394 48.1912 94.0387 48.1869C93.9898 48.078 94.0036 48.1348 94.0385 48.1973Z" fill="#003858"/>
<path d="M91.9201 50.0782L91.934 50.0759L91.8997 50.0179L91.9201 50.0782Z" fill="#003858"/>
<path d="M91.1354 50.9913C91.141 50.9762 91.1425 50.9591 91.1293 50.9324C91.1147 50.9359 91.0992 50.9413 91.0802 50.9489C91.1056 50.9659 91.1215 50.9788 91.1354 50.9913Z" fill="#003858"/>
<path d="M93.0668 48.9604C93.1221 49.0283 93.1635 49.0692 93.1978 49.0953C93.2106 49.0724 93.1892 49.036 93.0668 48.9604Z" fill="#003858"/>
<path d="M148.295 146.231C97.463 199.453 38.6915 218.31 44.7333 229.963C55.186 250.122 128.43 220.485 175.163 163.368C221.897 106.252 245.382 46.1109 231.085 35.1413C220.917 27.3398 182.48 110.439 148.295 146.231Z" fill="#E4A52D"/>
<path d="M138.794 138.363C120.809 156.998 58.7936 203.673 52.5618 215.618C45.9824 228.229 116.971 184.515 147.301 153.939C183.64 117.306 235.797 40.7595 226.128 33.7904C219.251 28.8341 174.794 101.063 138.794 138.363Z" fill="#FFCC34"/>
<path d="M229.925 32.002C230.115 31.9939 230.227 31.8348 230.343 31.6903C230.141 31.7328 230.011 31.824 229.925 32.002Z" fill="#A17645"/>
<path d="M230.346 31.69L230.346 31.6871L230.342 31.691L230.346 31.69Z" fill="#A17645"/>
<path d="M227.704 0.00162056C227.682 0.0431623 227.657 0.0904737 227.632 0.138458C227.663 0.0970127 227.69 0.0525861 227.704 0.00162056Z" fill="#A17645"/>
<path d="M232.958 23.619L232.704 23.5623C232.721 23.1679 233.005 23.48 232.957 23.1084C232.599 22.93 233.008 22.5122 232.818 22.3691C232.847 22.3745 232.862 22.199 232.974 22.2193C232.781 22.1484 232.929 22.0361 232.879 21.9221C232.824 21.8783 232.82 21.9469 232.761 21.972L232.691 21.7166C232.753 21.6233 232.869 21.6067 232.891 21.715C232.927 21.3888 232.979 20.4402 232.975 19.5162C232.977 18.5855 232.936 17.6792 232.865 17.3483C232.723 17.4326 232.836 17.6384 232.609 17.7141C232.467 17.5376 232.637 17.4563 232.495 17.3779C232.836 17.3121 232.552 16.9937 232.893 16.8663L232.693 16.8157L232.807 16.7304C232.55 15.9714 232.695 16.5519 232.694 15.8872C232.637 15.5041 232.352 15.3179 232.438 15.1079C232.438 15.1391 232.323 15.2217 232.267 15.1234C232.438 15.108 232.126 14.8616 232.297 14.8152C232.269 14.719 232.27 14.4082 232.042 14.511C232.156 14.4593 232.186 14.1825 232.299 14.349C232.299 14.2547 232.329 14.1672 232.273 14.0999L232.214 14.2173C232.162 13.9052 232.335 13.7393 232.11 13.5323L232.023 13.6456C231.998 13.4588 231.971 13.3019 232.201 13.2368L232.282 13.4276C232.261 13.1216 232.239 12.9409 232.104 12.6831L232.101 12.7732C231.975 12.6054 231.855 12.1058 231.729 11.6062C231.613 11.1137 231.486 10.6171 231.349 10.4634L231.164 10.5801L231.018 10.3179C231.015 10.3478 231.603 10.491 231.543 10.5096C231.541 10.378 231.538 10.1081 231.533 9.76987C231.543 9.44024 231.537 9.03279 231.572 8.649C231.614 7.86441 231.754 7.13863 231.858 6.93983C231.99 6.79172 232.145 6.98598 232.173 6.99477C232.15 6.76893 231.998 6.8481 232.058 6.6801C232.102 6.64254 232.194 6.73069 232.212 6.76391C232.211 6.68309 232.29 6.6324 232.209 6.6017C232.12 6.67614 231.912 6.5711 231.759 6.56955L231.837 6.34815L231.972 6.40155C231.989 6.35385 231.629 6.15341 231.76 5.95007C231.937 5.60403 232.012 5.18567 232.196 4.85546C232.273 4.89755 232.29 4.99208 232.307 5.08515C232.33 5.04093 232.338 4.96108 232.412 4.94496C232.239 4.96388 232.378 4.7563 232.293 4.79405C232.074 4.37733 232.538 4.21831 232.429 3.8797C232.296 3.79135 231.176 2.98775 230.086 2.1153C228.992 1.24961 227.931 0.317402 227.772 0.212353C227.84 0.11358 227.908 0.0157727 227.953 0.00225536C227.863 -0.0222689 227.703 0.156739 227.682 0.292298L227.842 0.421098C227.756 0.703899 227.705 0.413277 227.573 0.661223C227.422 0.587554 227.526 0.344338 227.632 0.138489C227.509 0.304462 227.298 0.419649 227.411 0.587554C227.252 0.719444 227.247 0.462327 227.065 0.630231C227.016 0.80026 227.07 1.07987 226.895 1.20279L226.87 1.1856C226.506 1.52797 226.775 1.94006 226.47 2.25607L226.437 2.19061C226.293 2.28977 226.299 2.61486 226.108 2.8266C226.166 2.76713 226.3 2.75206 226.263 2.90993C226.07 3.16 226.103 3.39568 225.913 3.5632L226 3.82196C225.919 4.07078 225.812 4.5125 225.704 5.04789C225.662 5.31456 225.616 5.6047 225.569 5.90662C225.528 6.20728 225.504 6.51635 225.472 6.82696C225.371 8.0636 225.389 9.25969 225.397 9.73367L225.372 9.69379C225.388 10.4281 225.419 11.5188 225.499 12.587C225.577 13.6589 225.702 14.7002 225.858 15.3904C225.717 15.602 225.775 15.8955 225.747 16.1171C225.803 15.994 225.917 16.0368 225.917 16.1331C225.947 16.7997 226.029 16.1784 226.143 16.8531C226.243 17.2424 226.302 18.1689 226.309 19.0638C226.314 19.9565 226.261 20.814 226.191 21.1239C226.428 21.4862 226.246 21.8942 226.382 22.2363L226.328 22.1975C226.371 22.381 226.316 22.962 226.234 23.5274C226.159 24.0979 226.034 24.6352 226.051 24.8352L226.092 24.7926C226.174 25.148 225.931 25.0444 225.807 25.2726C226.067 25.3048 226.164 25.625 226.152 25.73L226.097 25.71C226.095 25.8702 226.244 26.3032 226.189 26.5618L226.056 26.5034C226.136 26.7618 225.956 27.1341 225.903 27.2743C225.723 27.5872 225.286 27.9422 225.23 28.4243C225.23 28.4243 225.105 28.4321 224.979 28.4399C224.856 28.4452 224.732 28.4505 224.732 28.4505L224.747 28.508C224.747 28.508 225.742 29.2884 226.866 30.1106C227.992 30.9249 229.264 31.7641 229.96 31.636L230.075 31.7263L230.155 31.5541C230.331 31.3958 230.239 31.2196 230.356 31.3064L230.184 31.5652C230.335 31.3908 230.321 31.5669 230.347 31.6862C230.407 31.6106 230.47 31.5389 230.547 31.4951C230.521 31.4274 230.478 31.4935 230.433 31.5081C230.451 31.3742 230.422 31.1605 230.542 31.0587C230.657 30.8562 230.754 31.1598 230.89 30.9202C231.633 29.6732 232.217 28.372 232.463 26.9752C232.526 26.9587 232.517 26.9957 232.535 27.0428C232.557 26.6082 232.65 26.241 232.633 25.8526C232.711 25.7612 232.801 25.75 232.864 25.7306C232.802 25.7496 232.847 25.2188 232.875 24.6923C232.919 24.1594 232.938 23.6357 232.958 23.619Z" fill="#003858"/>
<path d="M461.186 121.18C461.186 155.483 432.248 169.126 401.255 169.126C370.261 169.126 345.681 151.125 345.681 116.822C345.681 100.791 369.399 69.8155 372.923 61.2484C382.039 39.0916 392.373 24.1997 408.882 24.1997C439.875 24.1997 461.186 86.8772 461.186 121.18Z" fill="#78CD68"/>
<path d="M186.147 170.224C149.985 222.828 99.1081 244.852 107.226 254.943C121.27 272.401 183.372 239.375 214.879 183.571C246.385 127.767 255.54 71.1443 239.858 62.3598C228.705 56.1126 210.466 134.847 186.147 170.224Z" fill="#E4A52D"/>
<path d="M175.603 163.861C162.767 182.295 114.77 229.876 111.489 241.252C108.024 253.263 165.029 207.628 186.856 177.314C213.008 140.993 245.452 67.0757 234.941 61.5436C227.466 57.6094 201.297 126.962 175.603 163.861Z" fill="#FFCC34"/>
<path d="M238.15 59.5126C238.331 59.4752 238.409 59.3029 238.493 59.1441C238.307 59.218 238.198 59.3269 238.15 59.5126Z" fill="#A17645"/>
<path d="M238.498 59.1423L238.496 59.1381L238.492 59.1449L238.498 59.1423Z" fill="#A17645"/>
<path d="M229.188 30.795C229.174 30.8393 229.159 30.8895 229.144 30.9406C229.166 30.895 229.184 30.8471 229.188 30.795Z" fill="#A17645"/>
<path d="M247.383 53.8669L247.198 53.6902C247.404 53.3833 247.49 53.7795 247.624 53.4578C247.412 53.1308 247.956 53.0093 247.867 52.7977C247.89 52.8167 247.985 52.6846 248.068 52.759C247.938 52.6029 248.118 52.5903 248.131 52.4741C248.106 52.4112 248.07 52.4637 248.008 52.4532L248.073 52.2146C248.171 52.1729 248.275 52.2189 248.241 52.316C248.43 52.0756 248.93 51.3518 249.374 50.6232C249.824 49.8914 250.23 49.1603 250.331 48.8648C250.17 48.8583 250.166 49.0778 249.938 49.0209C249.905 48.8099 250.087 48.8332 250.006 48.6992C250.325 48.8217 250.24 48.4275 250.588 48.5017L250.445 48.3603L250.582 48.3518C250.733 47.6262 250.574 48.1544 250.895 47.6342C251.033 47.3057 250.884 47.0147 251.058 46.894C251.043 46.9183 250.907 46.9244 250.907 46.8188C251.058 46.894 250.915 46.5425 251.081 46.5935C251.104 46.504 251.255 46.2623 251.014 46.2258C251.135 46.2436 251.293 46.0427 251.308 46.2303C251.353 46.1572 251.421 46.1025 251.406 46.0222L251.301 46.0837C251.407 45.8137 251.632 45.7727 251.543 45.4963L251.416 45.5401C251.484 45.3818 251.537 45.2448 251.762 45.3112L251.738 45.5027C251.867 45.2503 251.936 45.101 251.946 44.8299L251.9 44.8989C251.846 44.4983 252.457 43.0965 252.369 42.7069L252.161 42.7042L252.162 42.4231C252.145 42.4449 252.568 42.8598 252.51 42.8433C252.57 42.7399 252.694 42.528 252.85 42.2624C253.01 42.008 253.199 41.6923 253.402 41.4081C253.8 40.8173 254.241 40.3315 254.415 40.235C254.589 40.1934 254.628 40.4264 254.647 40.4481C254.728 40.2606 254.573 40.2463 254.692 40.1392C254.743 40.1316 254.78 40.2525 254.78 40.29C254.813 40.22 254.901 40.231 254.848 40.1616C254.744 40.1694 254.622 39.9755 254.499 39.8908L254.66 39.7645L254.746 39.8795C254.78 39.8526 254.58 39.5015 254.777 39.4174C255.068 39.2432 255.313 38.9622 255.598 38.8137C255.639 38.89 255.611 38.9721 255.584 39.0527C255.621 39.0322 255.662 38.9761 255.726 39.0063C255.584 38.9212 255.782 38.8424 255.7 38.8223C255.702 38.7128 255.731 38.6353 255.773 38.5766C255.817 38.5247 255.874 38.4912 255.932 38.4612C256.048 38.4009 256.164 38.3552 256.202 38.1926C256.139 38.0429 255.656 36.7642 255.25 35.4343C254.836 34.1091 254.5 32.7399 254.43 32.5634C254.539 32.5202 254.647 32.4779 254.69 32.4924C254.632 32.421 254.406 32.4787 254.314 32.5785L254.372 32.7753C254.149 32.9601 254.267 32.6917 254.026 32.8224C253.945 32.6772 254.161 32.5336 254.359 32.4234C254.169 32.491 253.937 32.4685 253.936 32.6706C253.736 32.6908 253.873 32.4755 253.634 32.5132C253.504 32.6312 253.396 32.8897 253.189 32.8957L253.178 32.8681C252.942 32.9088 252.819 33.0557 252.706 33.1981C252.599 33.3479 252.501 33.4936 252.29 33.5405L252.297 33.4681C252.131 33.4737 251.957 33.7414 251.703 33.8213C251.779 33.8017 251.894 33.8604 251.786 33.9737C251.5 34.0759 251.407 34.2884 251.165 34.3253C251.165 34.3253 251.15 34.3906 251.135 34.4558C251.119 34.5205 251.108 34.5868 251.108 34.5868C250.73 34.9121 249.866 35.8136 249.2 36.7674C248.519 37.7167 247.968 38.6799 247.741 39.0602L247.74 39.0159C247.045 40.2061 245.787 42.5223 245.398 43.7531C245.177 43.8467 245.082 44.1058 244.951 44.2649C245.058 44.1973 245.133 44.289 245.087 44.3645C244.789 44.9005 245.158 44.4568 244.928 45.0428C244.823 45.3988 244.424 46.1518 244 46.8556C243.574 47.5533 243.121 48.1976 242.916 48.403C242.941 48.805 242.598 49.035 242.55 49.3685L242.523 49.3107C242.473 49.4764 242.154 49.8993 241.826 50.2989C241.497 50.699 241.156 51.054 241.077 51.2141L241.129 51.2018C241.041 51.531 240.885 51.3112 240.683 51.4208C240.881 51.5862 240.814 51.881 240.761 51.9638L240.725 51.919C240.655 52.0418 240.575 52.4461 240.423 52.6265L240.342 52.5078C240.29 52.7433 239.986 52.9411 239.885 53.0159C239.745 53.0729 239.556 53.1344 239.368 53.1907C239.177 53.2406 239.007 53.355 238.876 53.5117C238.876 53.5117 238.781 53.4432 238.686 53.3744C238.594 53.3047 238.502 53.2349 238.502 53.2349L238.488 53.2876C238.488 53.2876 238.586 53.587 238.737 54.0505C238.889 54.5143 239.092 55.1444 239.317 55.8001C239.771 57.1075 240.314 58.5246 240.94 58.8113L240.983 58.9507L241.14 58.8538C241.367 58.8219 241.387 58.6246 241.434 58.7619L241.157 58.8791C241.372 58.82 241.266 58.9574 241.222 59.0701C241.312 59.0418 241.4 59.0174 241.486 59.0243C241.502 58.9542 241.432 58.9844 241.387 58.9714C241.476 58.8728 241.564 58.6756 241.714 58.6587C241.914 58.5553 241.832 58.8604 242.068 58.7369C243.329 58.1116 244.463 57.3362 245.348 56.3231C245.409 56.3432 245.383 56.3685 245.374 56.4165C245.49 56.2444 245.615 56.0965 245.729 55.9501C245.838 55.8028 245.944 55.6584 246.035 55.4979C246.144 55.4642 246.225 55.5023 246.287 55.5193C246.255 55.5108 246.315 55.4046 246.417 55.2495C246.513 55.0939 246.653 54.8894 246.797 54.6855C247.087 54.2777 247.357 53.8702 247.383 53.8669Z" fill="#003858"/>
<path d="M380.657 166.532C380.657 127.716 349.19 96.2486 310.373 96.2486C271.556 96.2486 240.089 127.716 240.089 166.532C240.089 205.349 271.556 236.816 310.373 236.816C349.19 236.816 380.657 205.349 380.657 166.532Z" fill="#FF931C"/>
<path d="M303.29 217.202C303.29 215.396 301.827 213.933 300.021 213.933C298.216 213.933 296.752 215.396 296.752 217.202C296.752 219.007 298.216 220.471 300.021 220.471C301.827 220.471 303.29 219.007 303.29 217.202Z" fill="#FA7D35"/>
<path d="M361.043 184.512C361.043 182.706 359.579 181.243 357.774 181.243C355.968 181.243 354.505 182.706 354.505 184.512C354.505 186.317 355.968 187.781 357.774 187.781C359.579 187.781 361.043 186.317 361.043 184.512Z" fill="#FA7D35"/>
<path d="M351.646 200.857C351.646 197.019 348.535 193.908 344.697 193.908C340.86 193.908 337.749 197.019 337.749 200.857C337.749 204.695 340.86 207.806 344.697 207.806C348.535 207.806 351.646 204.695 351.646 200.857Z" fill="#FA7D35"/>
<path d="M329.442 213.933C329.442 210.095 326.331 206.984 322.493 206.984C318.656 206.984 315.544 210.095 315.544 213.933C315.544 217.771 318.656 220.882 322.493 220.882C326.331 220.882 329.442 217.771 329.442 213.933Z" fill="#FA7D35"/>
<path d="M297.58 109.199L296.997 109.987L297.915 110.328C299.362 110.867 297.761 112.474 295.204 113.048C294.189 113.276 293.213 113.708 292.593 114.204V114.204C291.032 115.451 287.823 115.972 287.161 115.085C286.899 114.733 286.17 114.578 285.212 114.671H285.212C282.8 114.903 282.419 113.617 284.566 112.495C285.419 112.05 285.945 111.522 285.973 111.084C286.043 109.98 289.017 108.665 291.005 108.858C291.795 108.934 292.849 108.763 293.824 108.4C296.279 107.486 298.499 107.958 297.58 109.199Z" fill="#003858"/>
<path d="M444.014 86.2104C437.214 71.0555 433.86 93.6957 420.887 102.429C412.244 108.246 404.764 108.143 396.068 126.132C380.551 158.229 415.42 172.395 437.214 153.87C468.916 126.923 452.194 104.44 444.014 86.2104Z" fill="#70B748"/>
<path d="M408.506 19.5758L408.303 19.5255C408.244 19.2292 408.516 19.4719 408.409 19.1934C408.105 19.0494 408.339 18.7476 408.17 18.635C408.193 18.6394 408.171 18.5092 408.26 18.5279C408.099 18.4708 408.192 18.3902 408.133 18.3038C408.084 18.2696 408.093 18.3208 408.053 18.338L407.954 18.1453C407.985 18.0773 408.069 18.0679 408.105 18.1494C408.074 17.9063 407.942 17.201 407.776 16.5147C407.613 15.8234 407.424 15.1507 407.313 14.904C407.22 14.9633 407.342 15.1185 407.183 15.1693C407.045 15.0352 407.16 14.9788 407.038 14.9174C407.285 14.8763 407.015 14.6344 407.25 14.5478L407.091 14.5057L407.162 14.4453C406.835 13.8774 407.046 14.3103 406.93 13.8185C406.821 13.534 406.573 13.39 406.601 13.2363C406.607 13.2593 406.534 13.3177 406.474 13.2439C406.601 13.2364 406.323 13.0472 406.444 13.017C406.406 12.9453 406.353 12.7159 406.198 12.7864C406.275 12.7509 406.25 12.5472 406.364 12.6727C406.348 12.6033 406.355 12.5382 406.301 12.4878L406.277 12.573C406.184 12.3417 406.285 12.2236 406.08 12.0656L406.033 12.147C405.982 12.009 405.934 11.892 406.096 11.8492L406.192 11.9924C406.12 11.7647 406.074 11.633 405.926 11.4394L405.94 11.5056C405.683 11.2472 405.228 10.0238 404.959 9.78622L404.841 9.86732L404.683 9.67026C404.686 9.69218 405.156 9.81383 405.114 9.82551C405.09 9.72916 405.039 9.53161 404.975 9.28395C404.92 9.04228 404.846 8.74616 404.798 8.46654C404.685 7.89515 404.655 7.37965 404.697 7.24303C404.771 7.14445 404.925 7.29189 404.947 7.29951C404.886 7.13624 404.792 7.18809 404.797 7.06576C404.821 7.04008 404.91 7.10998 404.932 7.13586C404.91 7.07406 404.965 7.04684 404.897 7.01913C404.843 7.06605 404.666 6.97915 404.549 6.96901L404.567 6.81627L404.68 6.86271C404.684 6.83017 404.374 6.66439 404.435 6.52719C404.499 6.28938 404.476 5.99548 404.551 5.77795C404.617 5.81492 404.648 5.88348 404.679 5.95058C404.688 5.92152 404.679 5.8659 404.731 5.86156C404.604 5.85866 404.669 5.72484 404.612 5.74348C404.552 5.66604 404.524 5.60039 404.514 5.54255C404.509 5.48858 404.522 5.44243 404.537 5.39849C404.567 5.31015 404.606 5.23194 404.535 5.10333C404.415 5.02339 403.422 4.32145 402.442 3.55328C401.461 2.79158 400.498 1.96799 400.359 1.87211C400.395 1.79873 400.431 1.72613 400.464 1.71908C400.391 1.69224 400.298 1.82258 400.303 1.92889L400.447 2.0435C400.427 2.26161 400.341 2.02689 400.281 2.21439C400.153 2.14507 400.192 1.95872 400.24 1.8026C400.173 1.92541 400.03 2.00236 400.145 2.1441C400.045 2.23795 399.999 2.03278 399.887 2.15424C399.882 2.28854 399.968 2.51226 399.856 2.59896L399.835 2.5838C399.726 2.70652 399.741 2.85801 399.759 3.00274C399.784 3.14989 399.812 3.29085 399.721 3.40759L399.684 3.3541C399.595 3.42439 399.65 3.68073 399.553 3.83782C399.584 3.79409 399.682 3.78916 399.686 3.91111C399.585 4.09668 399.653 4.28245 399.54 4.40439C399.54 4.40439 399.568 4.45614 399.597 4.5077C399.624 4.55936 399.656 4.61014 399.656 4.61014C399.63 4.98815 399.66 5.96226 399.829 6.89486C399.988 7.82959 400.227 8.7226 400.316 9.07888L400.29 9.04827C400.577 10.1574 401.189 12.2779 401.67 13.2938C401.6 13.4472 401.694 13.6658 401.712 13.8293C401.733 13.7394 401.827 13.7737 401.844 13.8449C401.981 14.3386 401.936 13.8811 402.139 14.3827C402.283 14.6732 402.487 15.3586 402.65 16.0198C402.808 16.6774 402.921 17.3083 402.923 17.5336C403.164 17.8048 403.104 18.102 403.266 18.3544L403.219 18.3244C403.284 18.4607 403.346 18.8834 403.39 19.2933C403.434 19.7039 403.445 20.0883 403.492 20.2314L403.514 20.202C403.651 20.4674 403.44 20.3757 403.39 20.5329C403.593 20.5699 403.723 20.8027 403.74 20.8817L403.695 20.8643C403.726 20.9784 403.911 21.2926 403.928 21.4796L403.816 21.4287C403.92 21.6143 403.863 21.8736 403.849 21.966C403.803 22.0617 403.733 22.1799 403.66 22.2943C403.582 22.4053 403.553 22.5528 403.568 22.7146C403.568 22.7146 403.476 22.7045 403.384 22.6944C403.294 22.6821 403.203 22.6699 403.203 22.6699L403.225 22.7124C403.225 22.7124 403.449 22.8827 403.796 23.1466C404.144 23.4104 404.614 23.7703 405.111 24.139C406.104 24.8728 407.21 25.6474 407.72 25.5986L407.823 25.6789L407.856 25.5487C407.964 25.4362 407.863 25.2902 407.967 25.3673L407.879 25.5596C407.966 25.4325 407.985 25.5709 408.024 25.6673C408.058 25.6118 408.093 25.5595 408.145 25.5301C408.114 25.4746 408.092 25.524 408.06 25.5325C408.053 25.4283 407.991 25.2553 408.065 25.1836C408.118 25.0317 408.244 25.2779 408.306 25.0974C408.654 24.158 408.846 23.1644 408.765 22.1035C408.81 22.0935 408.81 22.1215 408.832 22.1582C408.799 21.992 408.785 21.8388 408.765 21.691C408.743 21.5445 408.72 21.4014 408.68 21.2528C408.721 21.1859 408.788 21.1803 408.832 21.1677C408.809 21.1743 408.783 21.076 408.751 20.9271C408.717 20.7801 408.679 20.5814 408.643 20.3815C408.574 19.9807 408.493 19.5884 408.506 19.5758Z" fill="#003858"/>
<path d="M88.4309 49.8108L88.5257 49.5507C88.2478 49.2621 88.3107 49.7438 88.0876 49.416C88.1547 48.9747 87.6549 49.0038 87.6575 48.7331C87.6451 48.7618 87.52 48.6397 87.475 48.7511C87.5317 48.5313 87.3755 48.5728 87.3251 48.4433C87.3243 48.3634 87.3728 48.4123 87.4211 48.3812L87.285 48.1272C87.1887 48.1095 87.1164 48.195 87.1782 48.2959C86.9376 48.0781 86.2692 47.4019 85.6467 46.7026C85.0172 46.0021 84.4259 45.2881 84.2403 44.98C84.3729 44.9228 84.4518 45.1735 84.6239 45.0376C84.58 44.7849 84.4344 44.8683 84.457 44.6891C84.2306 44.9286 84.1675 44.4495 83.9 44.6426L83.9719 44.4359L83.8538 44.4685C83.4782 43.6822 83.7926 44.2396 83.3445 43.7418C83.1164 43.407 83.1427 43.0266 82.955 42.9418C82.976 42.9651 83.0926 42.93 83.0564 42.8087C82.9551 42.9419 82.9549 42.494 82.8329 42.6039C82.7831 42.5082 82.573 42.2776 82.7635 42.1609C82.6682 42.2188 82.4659 42.0372 82.518 42.2572C82.4544 42.1873 82.3789 42.1455 82.3637 42.0487L82.4738 42.0866C82.2917 41.8096 82.0887 41.8322 82.0688 41.4872L82.1911 41.498C82.0793 41.3375 81.9879 41.1966 81.8216 41.3424L81.907 41.555C81.7124 41.305 81.6036 41.1548 81.5025 40.8466L81.5642 40.9117C81.4732 40.4349 80.4803 39.0143 80.4209 38.5396L80.5955 38.4719L80.4984 38.1494C80.5199 38.1693 80.3054 38.7771 80.349 38.7398C80.2628 38.6399 80.086 38.4351 79.8643 38.1782C79.6426 37.9357 79.3754 37.6318 79.1073 37.3683C78.5709 36.813 78.0334 36.3918 77.8541 36.335C77.6931 36.3411 77.7399 36.6208 77.7314 36.6516C77.5993 36.4613 77.7251 36.3968 77.5884 36.3106C77.5426 36.3179 77.5531 36.468 77.5651 36.5113C77.5141 36.4409 77.4439 36.4808 77.4643 36.3848C77.5546 36.3615 77.5914 36.101 77.6661 35.9656L77.4868 35.8706L77.4543 36.0291C77.416 36.0088 77.4648 35.5436 77.2703 35.508C76.9655 35.3984 76.6636 35.1513 76.3725 35.0693C76.3641 35.1696 76.4155 35.2554 76.4657 35.3396C76.4276 35.3274 76.3739 35.2758 76.3303 35.3303C76.421 35.1885 76.2277 35.1591 76.2899 35.1107C76.2505 34.9857 76.1998 34.9057 76.1444 34.8512C76.0894 34.8053 76.0298 34.7846 75.971 34.768C75.8528 34.7347 75.7394 34.7182 75.6523 34.543C75.6536 34.3519 75.6232 32.7337 75.5111 31.0803C75.4073 29.4299 75.2227 27.7532 75.2205 27.5292C75.1144 27.5132 75.009 27.4981 74.9776 27.5282C75.0021 27.4281 75.212 27.4243 75.3234 27.5106L75.3418 27.7546C75.5928 27.8975 75.4019 27.6258 75.6496 27.7012C75.6681 27.5094 75.4374 27.4115 75.2327 27.3463C75.4157 27.365 75.6038 27.2671 75.6736 27.499C75.849 27.4602 75.66 27.2555 75.874 27.2246C76.0238 27.3199 76.2029 27.5833 76.3793 27.526L76.3787 27.4911C76.592 27.4644 76.7452 27.5951 76.8893 27.7235C77.0302 27.8625 77.1625 27.9996 77.356 27.988L77.3254 27.907C77.4675 27.8618 77.7051 28.1156 77.9465 28.1284C77.876 28.1295 77.7991 28.2324 77.9282 28.3293C78.2042 28.3579 78.3554 28.573 78.5713 28.5406C78.5713 28.5406 78.6063 28.6109 78.6415 28.681C78.677 28.7504 78.7092 28.823 78.7092 28.823C79.1382 29.0795 80.1731 29.8473 81.0603 30.736C81.9574 31.6152 82.7505 32.5505 83.0713 32.9171L83.0572 32.8657C84.0489 34.0172 85.8989 36.2874 86.6473 37.5803C86.8654 37.6192 87.033 37.8876 87.1977 38.0298C87.0846 37.9853 87.0529 38.1138 87.1176 38.1862C87.5518 38.7093 87.0891 38.3143 87.4833 38.9158C87.693 39.2923 88.286 40.0334 88.8838 40.7101C89.4807 41.3794 90.0822 41.9789 90.3251 42.1512C90.4414 42.6206 90.8083 42.7785 90.9627 43.1467L90.9653 43.072C91.0648 43.2467 91.4778 43.6334 91.8902 43.9908C92.3033 44.3485 92.7123 44.6502 92.8331 44.8098L92.7848 44.8119C92.972 45.1623 93.0278 44.8618 93.2355 44.925C93.1257 45.1763 93.2827 45.494 93.3557 45.5727L93.3699 45.5102C93.4713 45.6295 93.6763 46.0692 93.8664 46.2289L93.8936 46.0677C94.0182 46.3219 94.3417 46.455 94.4522 46.5094C94.5895 46.5317 94.7694 46.5438 94.9472 46.5501C95.1253 46.5481 95.3069 46.627 95.4709 46.7664C95.4709 46.7664 95.5277 46.6579 95.5845 46.5495C95.6378 46.4411 95.6912 46.3325 95.6912 46.3325L95.7211 46.3887C95.7211 46.3887 95.741 46.7626 95.7719 47.342C95.8024 47.9218 95.8467 48.7083 95.8811 49.5311C95.946 51.1732 95.9723 52.9693 95.5435 53.4924L95.5547 53.6659L95.3896 53.6031C95.188 53.6368 95.1038 53.4163 95.1105 53.5889L95.3839 53.6375C95.1826 53.6363 95.3189 53.7613 95.3947 53.877C95.3095 53.8722 95.2266 53.8718 95.1567 53.9061C95.1191 53.8307 95.1889 53.8436 95.2217 53.8148C95.1135 53.7291 94.9719 53.5299 94.8396 53.5571C94.6359 53.5004 94.8098 53.8249 94.5685 53.7565C93.2933 53.4293 92.0742 52.89 90.9828 52.001C90.9386 52.0431 90.969 52.064 90.9923 52.1165C90.8364 51.9546 90.6809 51.8235 90.5347 51.6907C90.3924 51.5554 90.2539 51.4224 90.1222 51.2664C90.019 51.2616 89.9641 51.3302 89.918 51.3688C89.9416 51.3493 89.8547 51.246 89.7161 51.0994C89.582 50.9506 89.3947 50.7589 89.2038 50.5694C88.8199 50.1911 88.4538 49.8067 88.4309 49.8108Z" fill="#003858"/>
</svg>
